<?xml version="1.0"?>
<!--
************* Copyright (c) 2017 Pareto Softare, LLC DBA Simplemaps.com *******************		
************* Free for Commercial Use, full terms at  http://simplemaps.com/resources/svg-license ************
************* Attribution is appreciated! http://simplemaps.com ***************************
-->
<svg baseprofile="tiny" fill="#7c7c7c" height="424" stroke="#ffffff" stroke-linecap="round" stroke-linejoin="round" stroke-width="2" version="1.2" viewbox="0 0 1000 424" width="1000" xmlns="http://www.w3.org/2000/svg">
 <g>
 </g>
 <path d="M79.7 308.9l-0.2 0.5-1-2.1 0.5-0.2 0.2 0.3-0.2 0.4 0.7 1.1z m74.9 6.2l-6.9-0.9-3.8-2.1-3.2-2.7-3.8-0.8-2.8 1.9-1.9 3.7-2 1.6-6.3 0.5-3.7-0.2-2.2-1.1-2.4 0-2.4 0.6-2.3-0.4-3.7-2.5-4.2-0.6-2-0.8-1.9-1.2-1.7 0.1-1.6 0.9-0.7 1.1-2.8 6.1-0.6 1.1-0.9 0-0.8 0.5-0.5 0.8-0.2 0.9-0.6 0.6-1.2-0.1 0 0.5 0.7 0.5-0.3 0.3-3.1 0.2-0.7 0.3-0.6 0.5-0.7-0.8-0.4 0-0.3 0.3-0.2-0.7-0.6 0.1-0.7-0.3 0.5-0.6 0.4-0.6 0.1-0.7-0.2-0.8 1.1-0.4 0-0.5-0.5-1.2 0.3-3-0.9 0.3-0.3-0.4-0.4 0-0.7 0.8 0.2-1.1 0.3-1 0.1-1-0.3-1 0.2-0.4-0.4-0.7 0.2-0.7 0.8 0.5 0.5-1 0.1-1.5-0.1-0.7-0.8-0.3-3-2-4.6-1.2-1.9-1.1 0.5-1.3 0.9-0.3 3.5 0.3 1.1-0.2 4.5-1.6 0.7-0.5 1.2-1.5 0.4-1 0.2-1.5 0-1.5 0-0.8-0.9-1.2-0.3-0.7 0.1-1.3 0.8-0.8 0.3-0.8 3.6 0 4.2-1.7 6.3-4.2 2.7-0.4 12.8 1 12.1-3.3 10.1-0.1 1.8-0.7 1.8-1.1 2.1-0.6 2.1-0.3 8.2-3 7.1 0.2 0.6 1.5 0.7 1.4 2.9 2 0.6 2-0.1 2.2 0.8 4-0.4 1.4-1.2 0.9-0.1 1.7 1.1 1.5 0.8 1.7 1.1 1.7 3.4 0.7 0.5 1.5-0.2 1.8-1.6 1.2-2 0.1-2.4 3.4-2.8 2.7-4-0.5-3.7 1-1 2.5 0.6 2.5 1.1 0.6 0.4 0.9 0.3 0.9z" id="TUR2229" name="Aydin">
 </path>
 <path d="M37.1 251.6l-0.1 0.7-0.5 0-0.8 0.3-0.2-1.3 1.6-0.8 0.3 0.6-0.3 0.5z m20.2-1.8l-0.6 0.4-0.4-0.4-0.1-0.3-1.2-0.6-0.3-0.3 0-2 0.4-1.4-0.1-0.6 0.6 0.1 0.6 0.5 0.4 0.8 0.1 1.8 0.7 0.7 0.1 0.5-0.2 0.8z m94.8 23.8l-8.2 3-2.1 0.3-2.1 0.6-1.8 1.1-1.8 0.7-10.1 0.1-12.1 3.3-12.8-1-2.7 0.4-6.3 4.2-4.2 1.7-3.6 0 0.2-0.8 0-0.6-0.2-0.6 0.7-0.7-0.4-1.4-1.4-2.5-1.4 0.5-1.9 0-1.9-0.3-1.2-0.6-0.8-1.2-1.4-0.3-0.3-0.2-0.2-1.3-0.5-0.4-1.5-0.2-2.7-1.1-1.4-0.1-1.6 0.3-1.5 0.6-0.4 1-0.4 0.2-0.5-0.3-1.1-2.4 0.2-0.8 0-1-0.3-1-0.3-0.9-0.5-0.9-1.2-1.1-0.5-0.7-0.9 0.5-0.2-0.8 0.1-2-0.7-0.6-0.8 0-0.9 0.4-1 0.2-3.3 0-0.5 0.2-0.7 4.3-0.4-0.4-0.3 0 0.2 1 0 0.8-0.3 0.7-0.6 0.3-0.4-0.3-0.6-1.7-0.5-0.8 0 1.4-0.5 0.1-0.7-0.5-1-1.1-0.4-0.6-0.1-0.6 0.2-1-1.4 0.4-1.3-1.1-1.3-1.4-1.3-0.6 0.4 1.4-0.4 0-0.3-0.4-1.1-1.2 0.2-1.3 0-0.6-0.2-0.6-0.4 0-0.4 1.8-1.1 0.4-1.3-0.4-1.7-1.5-0.5-0.3-2.7-0.8-0.1-0.5 0.3-1 1.4 0.6 0.6-0.9 0.5-1.2 1.1-0.3 0-0.5-1-0.7-0.1-1.2 0.4-0.7 0.7 0.8 0.2-0.9 0.5-0.4 0.2 0.8 0 0.7-0.1 0.6-0.5 0.6 0.6 0.3 1.1 0.2 0.2 0.6 0.3 0.2 0.8 0.1 0.7-0.2 0.4-0.4-0.5-0.8 0-0.5 0.9 0.6 0.9-0.1 0.6-0.3 2.5-1.7 0-1.3-0.4-1.4-0.9-0.8 0-0.5 1.3 0.7 0.7 0.7 0.4-0.1 0.8-1.7-0.7-0.5-1.3-1.1-1.1-0.4-0.7-0.7-0.5-0.1-0.4 0.3-0.5 0.9-0.3 0.2-1 0 0-0.3 0.5-0.7 0.3-1.3-0.2-0.8-1.3-1.9-0.1-0.8-0.6-2-0.1-0.9-0.6-2.5 0.2-1.9 0.2-0.8 0.5-0.3 0.8-0.1 1.2-0.6 0.5-0.2 1.4 0.1 1.3 0.4 1.2 0.5 0.9 0.8 1.8 2 0.8 1.2 0.3 1 1.2 1.9 1.3 1.8 1.1 1 0.3 0.8 0.1 0.7 0 1.3 0.3 0.7-0.7 0.4-0.5-0.4-0.5-0.1-0.6 0.2-0.6 0.3 0.9 0.5 0 0.6-0.5 0.8-0.4 0.9 1.3 0.2 0.5 0.7 0.3 1 0.6 1.1 0.9 3 0.8 1.5 1.2-0.4 0.2-0.9-0.3-0.6-0.8-0.6-0.4-2.7 0.3-1.2 0.6-1.1 0.8-0.7 0.8 0.2 0.4-0.4 0.6 0.7 0.6 1.2 0.9 2.7 1.1-0.5 0.4 0.8 0.8-0.1 0.9-0.4 0.9-0.3 4.2-0.4 2.5-1.3 1.1-0.3 1-0.8 0.5 0.1 1 0.3 0.6-0.4 0.4 0 1.4 0.7 1.2-0.8 1.2-1.3 1.5-0.8 0-0.5-0.5-0.4-0.6 0.4-0.3-0.5-1 0.5-1.8-0.2-0.4 0.2-1.4-0.6-1.4 0-3.2 1.4-1.1 0.5 0.3-0.8-0.9-0.7-1.5-2.5-0.8-0.5-1.3-0.4-0.5-0.3-1.1-0.9 0.1-0.4 0.9 0.7 1.4 0.9 0.8 0 0-0.5-0.6-0.7-0.6-0.7-0.8-0.5-0.8-0.4 0.2-0.7 0.3-1.7 0.2-0.8-0.8-0.7-0.4 0.2-0.6 0.5-1.1 0 0.4-0.9-1.1-0.4-0.7-0.1-0.7 0 0.3-1.3-0.6 0-0.5-0.3-1-0.7 0.8-0.7 1-0.2-1-1.6-0.4-0.8-0.4-1.2 1-0.7 2.7-0.6 1.5-1.1 0.7 0.6 1 0.1 1.2 0.5 0.8 0.3 0.8-0.1-0.4-0.9 1-0.8 0.4-0.1 0.4 0.5 0.2-1.1-0.2-1.2-0.3 0.5-1.1-1.9-0.4-0.4 2.1-1 0.4 1.5 0.8 0.1 0.6-0.8-0.7-1.7 0.9-0.3 0.8-0.4 0.7-0.6 0.5-0.5 1 0.7 1.2-0.7 0.4-1.1-1.2-0.3 0.9-1.8 0-0.7-0.9-0.7-0.9 0.8-0.5 0.4-0.6 0.1-1 0-0.3-0.2-0.5-0.9-0.3-0.2-0.6 0.2-0.5 0.3-0.3 0.1-0.5-0.6-0.6 0.5-1.8 1.1-0.7 0.2-0.5-0.3-0.8-1.2-0.8-0.3-1-0.7-0.5-1.6 0.1-1.6 0.8-1.2 0-0.4-1.1 0 0.7-0.8 1.2-0.9 1.3-0.8 1-0.3 0.5-0.6-0.4-1.3-1.2-2-1.5-1.9-0.7-0.5-1.6-0.9 11.2-8.1 1-1.1 0.9-1.6 1-1.4 1.5-0.9 1.6-0.6 9.5-6.2 2.9 0.6 2.3 2.1 1.5 3 2 5.2 1.7 8.1 0.9 2.4 1.9 3.6-0.4 3.6-1.4 1.6-3.4 2.9-3.3 1.3-2.9 2-0.6 2.4-0.3 2.6-0.9 2.2-1.6 1.7-1.5 2.4-0.2 1.4 1.4 1.5 0.8 0.3 1.2 1.6 1.4 4.6 3.1 2.6 3.7 0.4 5.8-0.1 1.1 0.1 1.6 1.6 0.8 3.7 3.7 2.5 4 1.9 0.5 1 0.6 2.1 0.4 1 2.2 2 2.6-0.6 1.3-2.2 0.8-2.1 2.5 0.1 2.5 1.2 1.6 0 1.6-0.5 2.1 2.4 1.4 3.3 5.1-0.8 2-0.6 1.4 0.2 1 1.2 1.8 0.6 1.2 0.1 2.4 0.6 1.4 1.9 2.2 6.8 2.3 3.5z" id="TUR2230" name="Izmir">
 </path>
 <path d="M103.8 114.4l0.5 0.5 0.6 0.1 0 0.6-0.6 0.1-0.7-0.4-0.9-0.2-0.9-0.1-0.8-0.5-0.1-0.8 0.6-0.5 0.4-0.9 0.4-0.6 1.8 0.8 0.1 0.5-0.3 0.6-0.1 0.8z m29.9 4.6l-0.3 0.5-2.5 3.8-1.5 1.3-1.4 1.4 0.4 2.3 1.2 0.4 1 2.2-0.5 1.2-0.7 1.1-0.7 2.6 0.3 1.4 0.9 2.5 1.9 3.1 2.9 2 0.9 1.7 1 4.8 0.9 2.1 13.8 10.2 4.1 0.5 1.2-1.1 1.3-0.7 0.8 1.2-0.2 1.4 0.1 1.8 1 1.7 0.3 0.8 0.6 0.4 1 0.1 0.7 0.5 1.3 2 2.1 0.3 2.4-0.5 2.4 0.1 1.6 0.8 1.2 1.3-1 2-0.3 1.3 0 1.3-0.4 0.9-0.6 0.6-0.7 1.9-0.7 4.8-1.2 2-1.2 1.5-0.4 1-1.6 2.9-1.7 1.2-3.8 1.3-2 1-0.5 2.3 0.3 0.8 0.1 1.7-0.3 0.7-4.6-0.7-4.8 2.5-1.9 0.5-2 0.2-2.2-0.2-2.2 0.4-1.4 1.9-1.9 1.2-2.3 0.4-2.2 1-2.4-0.9-2.6-6-4.3-4.7-0.4-1-0.8-0.4-3.9 1.4-2.1-1 0.6-2.3 1.6-2.8-1.3-2.2-0.8 0.1-1.7 0.3-0.8-0.1-2.1-1.1-2.1-0.1-3.7 0.5-3.7-1.1-2.2-1.8-2.4-1.2-4 2.1-1.5-3-2.3-2.1-2.9-0.6-9.5 6.2-1.6 0.6-1.5 0.9-1 1.4-0.9 1.6-1 1.1-11.2 8.1-0.4-0.2-1.1-0.8-0.7-0.8 0.1-0.7-0.4-1.4-0.3-1.3-0.4-1-0.9-0.5-2.5 0.2-1.2-0.1-1.1-0.5 0.5-0.5 0.3-1.4 0.4-0.7 0.7-0.2 0.5 0.3-0.1 0.4-0.9 0.2 0 0.5 0.6-0.1 0.9 0.6 0-0.6 0.3-0.6 1.1-0.6 0.9-1.4 5.5-4.3-0.7-0.4 0.1-1.3-0.1-0.6 1.9-0.1 0.7-0.3 0.6-0.5-0.5-1 0.8-0.6 3-1 0.2-0.1 0.1-1 0.7-2.5 0-1.5-0.4-0.9-0.8-0.5-1.5-0.2-1.2 0.5-0.9 1-1 0.4-1.3-0.9-7.4 1.3-0.1-5.5 1.7-5.3 2.1-0.4 4.7 0.6 2.2-0.8 2-1.6 3.7-1.6 2.2-1.8 2.5 0 1.6 0.2 1.4-0.8 3.9 0.7 3.8 1.3 2.2-0.9 2.1-1.5 2.2-1 2.1-1.5 1.1-2.6 0.9-2.8 0.3-2.7-0.9-0.8-0.9-1.4 0.5-1.2 0.4-0.5 0.6-1.5 0.2-1.9 0.7-2.2 0.3-1.3-0.2-0.4-0.9-0.2-2.1-0.8-1-2.1 0.6-0.5 0.8-0.3 3.6-3.8 2.5-1.5 0.6-3-0.2-0.7 1.3-0.8 0.8-0.2 1.5 0.3 1.3 0.6 1.2 0.3 1.2-0.8 1.1 0.5 1.5 0.2 1.5-0.4 1.2-1.8 2.8-1.5 0.8-1.2-0.9 0-2.6-0.9-0.8 0.4-0.4 0-0.3-1.3-0.7-0.3-0.3-0.2-0.6-0.9-0.1-1.2-0.2-0.5-0.9-0.1-0.4-0.2-1.7-1.7-0.4-0.6 0-0.5 0.6-0.2 0.5-0.4 0.8-1 0.6-0.3 0.9 0.4 0.5-0.8 1 1.2 0.5 0.3 0.3-0.4 0.5-0.2 8.6 1.4 2.4 0.8 1 1.2-0.9 1.6-4.5 2.3-1.4 1.2 0.2 1.7 1.9 0.6 4.4-0.4 4.4-1.7 5-0.2z m-30.1-18.1l1.4 0.7 0.8-0.3 1.5 0.3 1.3 0.7 0.3 1.2-1 0.7-1.9 0.3-1 0.4-1.8 1.5-1 0.4-1.1-0.5-0.6 0-1-0.5-0.9-0.7 0.2-1.5-0.7-1.1 0.3-0.7 0.7-0.7 0.3 0.2 0.2 0.7 1.3-0.7 1.3-0.4 1.4 0z" id="TUR2238" name="Balikesir">
 </path>
 <path d="M20.6 156.8l0.8 0.2 0.3 0.3 0.9-0.4 0.3 0.6-0.1 2.4-0.3 1-0.9-0.1-1.7-1.1-1.5-0.8-0.7-0.5-0.3-0.8 0.4-0.6 1-0.2 1.8 0z m-4-21.2l0.5 0.2 1-0.2 0.8-0.7 0.3 0 0 1.4-1.2 0.7-1.1 0.4-3.5 0.5-2.3 1-4.7 0.8-1.1-0.1-1.3-0.5-0.6-0.3-0.3-0.4-2.1-0.7 0-0.4 1.2-2 1.7-1.8 2.1-1.3 3.5-0.7 4.5-1.7 0.7-0.1 0.6 0.1 1.1 1.3 0.7 0.1 0 0.5-0.2 1.4 0 0.9 0.2 0.5-0.5 1.1z m83.9-10.9l0.2 0.7-0.6 3-2.5 1.5-3.6 3.8-0.8 0.3-0.6 0.5 1 2.1 2.1 0.8 0.9 0.2 0.2 0.4-0.3 1.3-0.7 2.2-0.2 1.9-0.6 1.5-0.4 0.5-0.5 1.2 0.9 1.4 0.9 0.8-0.3 2.7-0.9 2.8-1.1 2.6-2.1 1.5-2.2 1-2.1 1.5-2.2 0.9-3.8-1.3-3.9-0.7-1.4 0.8-1.6-0.2-2.5 0-2.2 1.8-3.7 1.6-2 1.6-2.2 0.8-4.7-0.6-2.1 0.4-1.7 5.3 0.1 5.5-10.9 2-1.2 0.5-0.5 0.6-0.6 0-2.3 1.3-0.4 0.3-0.6 0-2.7-0.5-0.6 0.1-0.7 0.3-0.5 0.1-0.7 1.1-1-0.6-4.1 1-2.1 0-2-1-0.2-1.5 1.3-3.5 0.8-3.4 2-1.9 0.4-1.6 0.4-3.7-0.2-0.7-1-1.9-0.2-0.9 0-0.6 0.5-0.4 0.2-0.4 0-1.6 0.2-1.8-0.1-0.6-0.8-0.2 0.3-0.7 0.7-3.4-0.3-1.8 0-0.6 0.1-0.6 0.5-0.9 0.3-1.2 1.1-1.9 0.5-0.5 2.7 0.9 0.9-0.5 1.7-0.8 0.6-0.3 2.2-2.3 0.4-0.7 0.2-0.6 0-0.9 0.3-0.7-0.1-0.5 0.8-0.1 0.5-0.3 0.3-0.8 0.2-1.3 0-1.3-0.4-1 0.4-1 0.2-0.4 1-0.1 0.8-0.1 1.3-0.7 1.8-0.4 0.9-0.9 2.3-3.1 0.5-0.3 1.2-0.5 0.6-0.5 5.6-6.9 1.1-0.9 2.1-0.1 4.5 0.4 1.8-0.5 0.6 0.2 1.4 0.8 2.9 0.2 1.2-0.2 1.4-1.2 1.3-1.6 1.6-1.3 2.4-0.1 1.8 0.3 2 0.1 1.2-0.3 1.7-1.1 0.8 0 0.9 0.6 0.5 1 0.8 2.1-0.7 0.5-0.6-0.3-0.5 0.3 2.3 2.5 2.9 1.9 3.1 1.4 3.7 0.9 1.4 0 0.6-0.1 0.5-0.4z m-31.7-16.8l-0.7 0.1-2 0.6-3 1.9-0.8 0.8-0.9 0.6-3.3 0.5-0.9 0.6-1.7 1.4-0.7 0.3-0.6 0.5-0.5 2-0.5 0.8-1.7 1-0.4 0.5-0.1 1.1-0.3 1.1-0.8 0.9-2.8 2.7-0.4 0.3-1.5 0.3-0.7 0.6-1.1 1.1-0.3 0.5-1.4 1.7-0.9 0.8-1.2 0.7-1.2 0.6-1.1 0.2-0.7 0.6 0.1 1.2 0.7 1.3 0.7 0.6-2.4 2.4-0.8 0.6-2.1 1.2-1.6 1.5-0.6 0.4-2.8 0.9-0.5 0.1-0.5-0.4 0.1-0.8 0.4-0.8 0.3-0.4 0.9-0.6 0.6-1.5 0.4-1.4 0.2-0.7 2.4-3.3 0.6-2.4-0.2-1.9-1-1.5-1.6-1.2 0.6-0.4 0.1-0.5-0.2-0.3-0.7-0.2-0.2-0.3 0.5-0.6 0.7-0.6 0.3-0.1 0.6-0.6 2.7-1 1-0.1 0.8-1.3 2.6-1.7 2.4-2.1 3.1-1.1 2.3-2 1.5-1 1.6-0.7 1.4-0.4 2.5 0.4 0.7-0.4 0.7-0.7 1.1-1.7 0.8-0.9 1.2 0.6 1.6-0.5 1.5-1.3 0.7-1.4-1.6-3.4-0.4-0.6-0.6 0 0.4-4.3 0-0.2 7.6 0.7-0.1 5.5 1.7 5.1z" id="TUR2239" name="Çanakkale">
 </path>
 <path d="M62.2 9.7l1.4 8.1 1.6 6.7 0.6 6.8-1.1 6.7-2.2 3.2-0.8 5.1-2.5 5.3 1.6 3.1 0.6 1.3 0.4 9.7-0.8 4.1-2.6 3.3-1.6 4.2-0.9 4.8 0.3 5.6 2 4.4 1.4 4.5 0 0.2-0.4 4.3-3.4 0.6-1.2 0.6-0.7 0.2-3.6 0-1.4 0.5-4 2.3-1.5-1-0.8-0.3-0.9-0.1-0.7 0.3-0.8 0.5-0.8 0.2-1.4-0.7-0.9 0.1-2.8 0.8-9.6 0-1.4-0.2-0.7-0.5-0.5-1-0.3-1.3-0.4-1 0.3-1.1-0.1-1.5-0.5-1.5-0.8-1.1 0.5-0.2 2 0.2 1.6-0.8 1.2-1.4 0.4-1.8 0.8-1.3 2.8-2.4-0.4-0.8 0.1-0.4 0.3-0.6 0-0.4 1.1-0.5 0.3 0 0.4-0.4 0.3-0.6 0.4-1.4 0.3 0 0.5 0.7 0.8 0.3 0.7-0.2 0-0.4-0.5-0.8 0.6-0.6 1.5-0.7 0.8-0.6 0.5-0.7-0.7-0.5-0.5-0.7-0.2-0.6 0.2-0.5 0.4-0.2 0.8-0.1 0.4-0.4 0.4-0.8 0-0.8-1.4-0.7-0.5-0.7-0.7-1.6-0.1-1 0.9-1.8-0.4-0.3-0.8-0.2 0-0.6 1-1.5-0.6-1.2-0.2-1.3 0.2-1.3 0.6-1.5-0.8-1.2 0.5-0.6 3.4-0.3 0.8-0.5 1.4-1.2 1.5-1 0.6-0.8 0.6-0.1 2.6-2.9 0.6 0.7 1 0.6 1.1 0.3 0.9-0.1 0.7-0.7 0.5-1.2 0.2-1.4 0-1.5-0.2-1.4-0.8-3.4-0.3-2.6-0.2-1.2-0.6-1 0.3-0.7-0.2-1.8 0.3-0.8-0.4-0.9 0-1-1 1.5-0.5-0.6-2.4-1.2-2.9-2.2 0.4-0.9 0.2-1-0.8-0.2-1-0.4-2-0.6-1.4-1.3-0.9-0.3-1.4 0.2-0.5-0.8-0.4-1.4 0.2-1.5 0.8-1.7 2.1-1.9 5.4 0.2 2.5-0.7 0.7-1 0.4-1.3 0.2-1.2 0.2-1.3 0.2-1.1-0.7-0.6 0.1-0.7 0.7-0.6 1.5-1.7 0.8-0.6 1-0.1 4.9 0.8 1-0.1 0.5-0.4 1.1-1.1 0.6-0.2 0.5 0.3 1 0.8 0.6 0.2 0.9-0.7z" id="TUR2240" name="Edirne">
 </path>
 <path d="M133.4 40.1l-2.4 3.4-0.1 0-9.1 1-9 1.1-5.7 1.4-5.1 1.5-2.4 3.7-1.9 3.9-3.1 2.3-3.3 0.9-2.9-1.9-2.3-3.1-2.9-2-6.1 0-8.5 0.7-7.8 1.7-1.6-3.1 2.5-5.3 0.8-5.1 2.2-3.2 1.1-6.7-0.6-6.8-1.6-6.7-1.4-8.1 1.2-0.9 0.6 0 1 0.2 0.5-0.6 0.6-0.2 0.9 0.1 0.5-0.1 0.6-0.7 0.9-1.6 0.7-0.3 1-0.7 1.2-2.1 1.2-0.7 1 0 1 0.3 0.8 0.5 0.8 0.7 1.8 0 1.2 0.3 1.6-2.1 0.7-0.6 1.1-0.1 1.8 0.4 1.7 1 1.4 1.4 2.2 3.4 1.2 1.4 1.2 1.1 3.9 2.2 0.7 0.6 1.3 1.8 0.7 0.5 0.8-0.4-0.7-0.3 0.6-0.5-0.5-0.4 1.1-0.4 0.5-0.4 0.5-0.5 0.4 0.3 0.4-0.4 0.2-0.7 4-1 1.9 0 2.7 1.5 0.8 0.3 0.6-0.1 0.7-0.2 0.1-0.4-0.8-0.5 0.1-0.7 0.1-1 0.1-0.7 0.8 0 1-0.2 0.5 0.1 1.3 0.3 1.4 0.7 0.7 0.2 2.5-0.3 0.8 0.3 1.9 0.4 0.7 3.3 0 0.8 0.6 0.6 0.2 0.6 0 0.5-0.5 0.3-0.5-0.1-1-0.5-0.9 0.1-0.7 0.4-0.4 0.9-0.1 1.7 0.3 1.9 0.7 1.3 1 1.1 0.8 1.2 1 3.2 0.6 0.9 1 0.9 0.4 0.5 0.3 0.8 0.2 0.3 0 0.7-0.6 0 0 0.4 0.4 1.1 0.7 1.3 0.8 1 1.5 0.9 0.8 1 1.1 1.9 1.3 1.2z" id="TUR2241" name="Kirklareli">
 </path>
 <path d="M131.9 72l-0.5-0.2-2.5 0.9-0.3 0.3-0.6 0-2.8 1.2-0.8 0.2-0.9 0.4-0.8 0.6-0.6 0.6-1.1 1.9-0.4 0.9 0.1 0.6-0.9 0.2-4.2-0.5-0.8-0.5-0.8-0.6-0.8-0.5-2.1-0.6-1.9-0.1-11.2 1.6-1.6 1-1.1 2.3-1.3 5.5-1.2 2.1-4.9 4.8-2.2 4-4.7 3.5-1 1.4-0.6 0.2-1.3 0.1-1.4 1-2.4-0.1-1.1 0.2-0.9 0.7-1.5 2.2-0.6 0.4-1.4 0.2-1.7-5.1 0.1-5.5-7.6-0.7-1.4-4.5-2-4.4-0.3-5.6 0.9-4.8 1.6-4.2 2.6-3.3 0.8-4.1-0.4-9.7-0.6-1.3 7.8-1.7 8.5-0.7 6.1 0 2.9 2 2.3 3.1 2.9 1.9 3.3-0.9 3.1-2.3 1.9-3.9 2.4-3.7 5.1-1.5 5.7-1.4 9-1.1 9.1-1 1.4 4.9 0.6 4.6-1.6 5.7-0.7 4.2 0.7 5.3 0.6 3.8z" id="TUR2242" name="Tekirdag">
 </path>
 <path d="M259.7 123.7l0.7 3 3.2 5.7 2 2.4-5.4 0.3-4.2 3.4-0.9 3.5-0.7 3.5-1.7 3.2-2.7 1.9-2.8 0-2.7 1.2-0.8 1.4-0.9 1.3-1.6 0.9-1.3 1.1-0.6 7-2.2 4-2.9 3.3-2 0.5-3.9 0.5-4.1 1.2-2.2-0.7-5.8-4.1-1.8-0.8-2.1-1.3-0.9-1.1-1.7-3.7-0.3-2.8 0.9-5.8 2.9 0.6 2.6-1-0.7-3.4-1.4-1.1-2.7-3.9-0.1-3.4 1.5-6.9 5-5.3 0.9-1.9-0.2-1.8-1.2-1.5-0.2-2.2 0.6-1.6 0.6-1.9 0.2-2.2 1-1.9 1-1.1 1.1-0.9 2.8-1.5 1.5 3.1 1.8 2.8 2.1 1.7 1.9 2.1 4.6 1.4 7.2-1.9 2.3-0.2 1.9 0.6 2 0 1.6 1 1.3 1.9 0.9 0.8 3.9-0.1 2.7 0.7z" id="TUR2263" name="Bilecik">
 </path>
 <path d="M150.5 111.1l-0.6 0.3-0.2-0.5 0.4-1.9-0.2-1.1 0.9-0.3 0.5 0.3 0.1 0.3-0.3 0.3-0.6 2.6z m73.5-1.3l-2.8 1.5-1.1 0.9-1 1.1-1 1.9-0.2 2.2-0.6 1.9-0.6 1.6 0.2 2.2 1.2 1.5 0.2 1.8-0.9 1.9-5 5.3-1.5 6.9 0.1 3.4 2.7 3.9 1.4 1.1 0.7 3.4-2.6 1-2.9-0.6-1.6 0.2-1.5 0.7-1.7 0.3-1.6-0.2-5.5-2.2-2.6 1.9-1.1 4-0.6 1.6-1 1.1-1.5 5.4-2.4 1.8-1.1 3.1-0.3 4.5-2.9 1.8-3.7 0.1-3.7-0.5-2.3-0.5-2-1.6-1.2-1.3-1.6-0.8-2.4-0.1-2.4 0.5-2.1-0.3-1.3-2-0.7-0.5-1-0.1-0.6-0.4-0.3-0.8-1-1.7-0.1-1.8 0.2-1.4-0.8-1.2-1.3 0.7-1.2 1.1-4.1-0.5-13.8-10.2-0.9-2.1-1-4.8-0.9-1.7-2.9-2-1.9-3.1-0.9-2.5-0.3-1.4 0.7-2.6 0.7-1.1 0.5-1.2-1-2.2-1.2-0.4-0.4-2.3 1.4-1.4 1.5-1.3 2.5-3.8 0.3-0.5 7.3-0.3 2.7 0.4 4.5-0.1-1 0.3-0.3 0.5-0.2 0.6 2.2-0.8 2.4 0 2.4 0.6 2.4 1.1 0.3-0.4 0.7 0.4 0.5-0.2 0.5-0.5 0.4-0.2 3-0.5 0.8-0.7 0.8-0.4 1 0.1 1.8 0.6 1.5 0.1 1.5 0.3 0.7 0.3 1.3 0.8 0.9 0.3 0.9 0.2 4-0.1 0.9-0.2 0.8-0.6 0.4-0.9 0.5-1.8 0.3-0.8 0.7 0.3 0.9-0.1 0.9-0.3 0.8-0.4-1-1.1-1.1-1.1-1.3-0.8-1.1-0.3-2.9 0-0.4 0.3-1.2 0.9-0.1-7.4 3.6 0.9 1.6-0.2 8 3.5 3.3-0.7 3.3-3.5 3.3 0.7 2.9 0.9 3.1-0.2 9.6-3.6 3.6-0.7 7.1 2.6 0.3 1.6 0.5 1.4z" id="TUR2264" name="Bursa">
 </path>
 <path d="M181.3 88.1l-0.2 1.1-0.7-0.5 0-1 0.5-0.9 0.8-0.2-0.1 0.9-0.3 0.6z m38.6-20.9l0.1 0.6 0.5 2.1 0.2 2.2-1.5 3.5-2.8 1.6-3.4 1.3-3 2.1-0.4 1.7-0.9 1.6-1.9 0.2-1.5-1.3-1.6-3.4-2.5-2.1-2.7-0.3-2.3 1.7-2.2 2.2-1.3 0.7-2.7 2.3-1.8 2.3-0.7-0.4-1.1 0.2-1-1-2.9-1.4-1.1-0.9-1.1-1.4-1-0.9-2.9-1.5 0.4-0.5-0.6-0.3-0.3-0.7-0.2-1-0.4-0.9 1-0.5 1.1-1.2 0.8-1.4 0.7-2.7 0.6-1 0.2-0.8-1.1-0.8 1.2-1.9 1.9-2.2 2.1-1.5 1.9 0.3 0.5-0.7 0.8-0.1 9.8 1.8 10.4 2.5 12.7 1.9z m-88 4.8l-0.6-3.8-0.7-5.3 0.7-4.2 1.6-5.7-0.6-4.6-1.4-4.9 0.1 0 2.4-3.4 1.6 1.5 7.9 5 11.2 4.9 16.1 7.7 5.1 1.1 0.6 0.5 0.7-0.1 0.3-0.7 0.4-0.1 1.2 0.2 1.3 0.5 0.8 0.7-0.4 1.8-0.7 1.3-0.9 1.1-0.9 0.6-0.6 0.2 0.1 0.4 0.4 0.6 0.7 1 0.3 0.3-0.4 0.8-0.2 1.4-0.4 1.2-0.5 1.1-0.5 0.8-0.4 0.4-1 0.3-0.4 0.3-0.4 0.6-0.1 0.4 0.3 1.2-0.6 0.4-1.1-0.1-0.5-0.4-0.6 0.2-0.6 0.7-0.6 0.2-0.9 0.6-2.1 0.5-0.5 0.2-0.8 0.7-0.6 0.2-1.3-0.1-0.6-0.2-0.3-0.4-0.5-0.5-1.3-0.1-6.3 0.8-1.6-0.6 0.5-2.2-0.6-0.7-0.9-0.3 0.4-1.6-0.5-1.4-1.1-0.9-1.3-0.3 0.3 1 1.1 1.1 0.4 1.2 0.1 0.7-0.2 1-0.3 1-0.7 0.6-1.5-0.2-2.7-2.8-1.3-0.7-1.7-0.3-3.6-1.4-1.8-0.3-1.8 0-0.4-0.1-0.6-0.7-0.4-0.1-2 0.4-0.9 0.1-0.4-0.3z" id="TUR2265" name="Istanbul">
 </path>
 <path d="M249.5 65.8l-0.3 1.1-1.7 4.2 0.9 3.5 3.9 0.8 0.2 2.2-1.2 2.2-0.3 2.3-0.9 0.2-2.9 0.1-1.7-0.9-2.1-0.4-0.9 0.6 0.4 1.5 0.7 0.2 0.6 0.4-3.4 3.7-2 10.3-2.2 4.2-3 2.1-3.4 0.8-1.6 0.9-1.7 0.7-3.7 0.3-7.1-2.6-3.6 0.7-9.6 3.6-3.1 0.2-2.9-0.9 0.4-2.7 0-6.1 0.5-0.3 1.2-0.6 0.5-1.1 0.4-0.3 1.2-0.3 0.5 0.1 0.9 0.4 0.7 0.8 0.4 1.3 0.5 0 10.1-2.3 6-0.3 1.9 0.8 1 0 0.8-1.3-0.5-1.6-2-0.3-4.3 0.5-1.1 0.5-0.6 0-0.6-0.3-1.1-1-0.3-0.2-0.8-0.1-1.9-0.7-1-0.1-12.4 0.5-1 0.3-0.8 0.7-0.9 0.4-1-0.5-0.5-0.5-0.4-1.2-0.6-0.2 0.8-0.5-0.2-0.7-0.4-0.5-0.9-0.6-0.2 0.4-0.5-0.4-0.5 0.4-0.6 0.2-1.4 0.3 0-0.4 0.5-0.1 0.4-0.3 0.1-0.4 0.1-0.7 0.5 0.3 0.5-0.3-0.6-0.9-1-1.3-0.5-0.4 1.8-2.3 2.7-2.3 1.3-0.7 2.2-2.2 2.3-1.7 2.7 0.3 2.5 2.1 1.6 3.4 1.5 1.3 1.9-0.2 0.9-1.6 0.4-1.7 3-2.1 3.4-1.3 2.8-1.6 1.5-3.5-0.2-2.2-0.5-2.1-0.1-0.6 1.2 0.1 13.1 0.4 1.5-0.2 0.8-0.4 1.2-0.8 0.7-0.2 0.5-0.4 0.7-1.4 0.4 0.4 0.6-0.6 0.6-1.1 0.6-0.3 0.7 0.6 2.1 0.4 1.8 1.4 3.1 0.7z" id="TUR2266" name="Kocaeli">
 </path>
 <path d="M276.9 71.9l-0.1 0.7 0.3 2 0.1 1.5-3 2.8-1.8 4.1 0.4 2.1 0.9 1.8 0.1 2.1-0.7 2 0.5 1.8 1.1 1.6-1.2 2.1-3.3 2.6 0.2 2.2 0.3 2.2-0.6 2-3.4 1.6-3.6-0.1-2.1 3.2-1.5 4.2-0.8 0.5-0.6 0.7 0.3 1.8 1.1 1.4 1.2 2.4-1 2.5-2.7-0.7-3.9 0.1-0.9-0.8-1.3-1.9-1.6-1-2 0-1.9-0.6-2.3 0.2-7.2 1.9-4.6-1.4-1.9-2.1-2.1-1.7-1.8-2.8-1.5-3.1-0.5-1.4-0.3-1.6 3.7-0.3 1.7-0.7 1.6-0.9 3.4-0.8 3-2.1 2.2-4.2 2-10.3 3.4-3.7-0.6-0.4-0.7-0.2-0.4-1.5 0.9-0.6 2.1 0.4 1.7 0.9 2.9-0.1 0.9-0.2 0.3-2.3 1.2-2.2-0.2-2.2-3.9-0.8-0.9-3.5 1.7-4.2 0.3-1.1 14 3.4 1.8 1.6 0.8 0.5 4.4 0.8 6.4-0.2z" id="TUR2267" name="Sakarya">
 </path>
 <path d="M339.1 76.3l2.6 0.1 4.4 1-0.2 1.9 0 1.9 1.2 0.8 1.5 0.3 2.4 1.5 6 3 2 3.6-0.2 1.8-0.2 2-0.8 3.8-1.9 0.8-1.5 1.4-0.2 3.7 2 5.5-0.9 1.6-1.9 2.1-1.4 2.5-4.2 2.3-7.2-1.1-2.2 0.7-2.2 1.5-6.1 1.5-3.6 1.7-4.5 1-6.5-0.1-2 0.2-4.7 1.9-1.7-0.2-1.6-0.6-1.5-0.2-1.2-0.6-1.7-1.9-8.8 1-4.6-2.8-4.9-1.7-1.3 1.4-0.5 2.6 0.2 4.1-1.6 3.5-4.3 2.5-3.2 4.3-3.4-0.6-3.1-1.2-2-2.4-3.2-5.7-0.7-3 1-2.5-1.2-2.4-1.1-1.4-0.3-1.8 0.6-0.7 0.8-0.5 1.5-4.2 2.1-3.2 3.6 0.1 3.4-1.6 0.6-2-0.3-2.2-0.2-2.2 3.3-2.6 4.3 1.5 8.5-0.2 5.9 2.5 5-0.6 4-3 1.9-5.1 0.2-3.6 2.6-1.9 6.7-1.2 4.8-1.1 2.6-3 0.9-6 3.8 0.3 3.2 0.9 11.2 0.3z" id="TUR2268" name="Bolu">
 </path>
 <path d="M272.1 136.6l2.2 2.8 0.6 4.1 0.3 1.4 1.2 0.4 2.1-0.1 5-2.2 3 0.3 1.3 0.9 1.4 0.5 1.5-1.1 1.4-1.2 4.8 0.6 1.3-0.4 1.3-0.2 2.2 2.3 1.5-0.5 1.7 0.6 2-0.5 3.8 0 1.9-0.7 2.1 1.4 2.4-0.3 0 2 0.6 1.2 0.2 1.7 0.8 2.1 1.3 2 1.5 0.9 1.8 0.1 0.4 1 0.7 1.1 0.7 0.5 0.1 1.8-2.2 2.4 0.4 3.4 2.6 7.2 2.6 2.3 0.7 1.4 0.2 2.1 0.8 1.2 0.6 1.4 0 2.1-0.3 2-0.5 2.1 0.3 1.2 0.1 2.6 1.1 1.8 1.6 1.1 0.4 2-1 1.7-1.3 1.2-1.1 0.1-1.1 0.4-1 1.4-2.7 1.3-1.3 0.9-0.2 2-0.3 1.9-0.8 1.1-4.1 0.7-3.1-0.4-2-0.5-4.1-0.1-6.7 0.7-3.9-3-2.6-5.9-3.7-3.9-2.1 0.6-1.8 1.6-1.9 1.3-2 0.5-3.8 2.9-3.8 1.7-2.2-2.6-2.6-1.2-1.9 1.4-3.3 3.3-3.5 2.3-1.8 0.9-2.4 0.4-2.4-1.3-0.8-0.7-0.9-0.5-1.2-1.5-0.8-2.2-1.4-1.4-1.9-0.4-0.9-4.3-5.2-6.9-0.7-5.2-1.4-4.1-5.7-5.5-2-3.3 2.9-3.3 2.2-4 0.6-7 1.3-1.1 1.6-0.9 0.9-1.3 0.8-1.4 2.7-1.2 2.8 0 2.7-1.9 1.7-3.2 0.7-3.5 0.9-3.5 4.2-3.4 5.4-0.3 3.1 1.2 3.4 0.6z" id="TUR2269" name="Eskisehir">
 </path>
 <path d="M446.9 10.7l0.2 4-1.5 4.1-2.6 3.2-0.1 2.3 3.4 1.3 1.9 0 2.2 0.2 3.2 0.9 6.3 0.3 3.5 1 2.9 3.9-1.8 4.7-1.7 1.2-1.6 1.5-1 2.3-0.5 2.7 0.4 1.3 0.5 1.4-0.4 9.1-2.7 0.6-1.8 2.6-1.5 3.8-1.2 1.5-2.4 2.2-1.8 4.5-1.8 2.2-0.6 1.4 1 2.6 1.1 0.4 1.7 1.9-1.2 3.4-7.4 3.1-4.6 1-2.1-0.1-2.2-0.5-1.7-1.2-1.7-1.6-3-1.1-2-3.3 0.6-2.1 1.4-1.5 1.6-2.2-0.6-2.7-0.8-0.5-1.7 0.6-8.5 4.6-4 0.7-5.5 3.3-2 0.7-2.4-0.8-2-2.3-4.7-3.1-6.7-0.8-0.7-0.6-1.2-1.6-0.5-0.9-1.1-1.6-2.8-1.2-2.9-0.5-1-7.4 0.5-2.4 2.3-3.2 2.8-2.7 5.1-1.1-1.5-3.4-1.5-6.2-3.7-2.8-3.9 1.3-3.1 0.5-1.8-2-0.5-5 3.4-2.4-1.9-5.1-1.5-3.1-0.5-4.2 1.5-0.4 0.9-0.5 0.6 0.3 3.6-1 1.9-0.8 2.4-1.6 8.2-2.8 8.3-4.4 1.9-0.1 3.8 0.7 5.6 0 1.1 0.2 2.7 1 11.1 1.1 0.9-0.3 1.5 0.5 6.8-0.5 11.1 1.5z" id="TUR2270" name="Kastamonu">
 </path>
 <path d="M213.5 403.5l0.2-0.6 0.4-0.5 0.7 0.2-1.3 0.9z m-12-2.1l-0.5 0.3-0.7-0.3 0.4-0.4 0.8 0.4z m2.6 2.2l0.5-2 0.6-0.7 0.4-0.3 0.4 0-0.1 1 0.4 0.2 0.1 0.4-0.9 0.5-0.1 0.3-0.5 0.4-0.8 0.2z m17.3-4l-0.3 0.6-0.4-0.1-1.4 0.3 0.2-0.5 1-0.6 1.8-0.4-0.9 0.7z m133.7-31.9l1.8 4.7 2.2 4.4 1.4 1.8 1.7 1.2 2.1 1.1 1 2.1-0.5 3.8 0.3 7.2-0.8 3.1-0.9 1.6-0.7 1.7-0.2 1.7-0.4 1.5-0.8 1.3-0.1 0.4-0.2-0.1-1.9-0.2-1-0.3-4-2.3-0.5-0.5-0.4-0.8-0.9-0.4-1.1-0.3-0.8-0.5-2.4-3.3-0.5 0-0.2-0.4-1-0.6-0.2-0.4-0.2-1.9-0.2-0.5-1.2-1.8-3.1-2.8-1-2.8-0.6-0.8-0.7-1.3-0.9-0.3-0.9-2-0.6-1.1-0.8-0.4-3.2-3.3-0.4-0.2-1.6-0.2-1-0.8-2.1 0.1-1.1-0.2-0.4-0.6-0.6-0.6-1.3-0.4-1.5-0.3-0.9 0.2-0.5-0.5-2-0.8-1-1.5-0.7-0.6-0.6 0.1-1.1-0.2-4-1.8-0.8-0.7-0.8-0.9-9.8-4.4-1.5-0.3-0.2-1.6-1.8-1.1-20.9-3.1-8.6 0.5-1.4-0.4-1.1-0.7-2.1-1.6-3 2-1.4 1.4-0.8 2-0.9 1.7 0 2-0.3 2.1 0.1 1.2 0.5 1 0 0.4-0.7 1.1-0.2 0.6-0.1 1 0.1 1.1 0.7 1.2 0.2 0.8 0.4-0.4-0.1 1.3-0.7 2.3 0.1 0.8-1.8 1.5-0.8 1-0.6 2.3-1.1 1.8 0 0.5-0.7 1.1 0.1 1.1 0.6 0.9 0.7 0.5-0.4 0.9 1.4 0.5-0.8 0.9-1.4 1.2-0.6 1.4 0.7-0.1 0.4 0.1-0.5 0.5-0.7 0.6-0.7 0.6-0.5 1.4-0.7 0.9-1.5 1.3 0.1-2.8-0.3-1.1-0.6-0.5-1.2 0.3-5.5-2.5-1.1-0.1-4 0.7-0.4 0.5-0.2 1-0.1 1.3-0.3 0-0.4-1.2-0.3 1.2 0 0.5-0.8-0.5 0 1-1.9-0.5-0.8-0.5-0.1 0.5-3.5 1.9-0.8-0.1-0.6 0.4-0.6-0.1-1.3-0.3-0.7 0.2-0.7 0.7-0.9 0.5-1.9 0.4-0.4 0.9-0.5 0-1.3 0.4 0 0.4 1.1 0-0.7 0.7-0.8 0.6-0.8 0.4-0.9 0.1 0-0.4 0.2-0.3 0.5-0.6-0.7 0.1-0.4 0.4-0.6-0.7-0.6-0.2-0.7 0.1-0.6 0.3-0.4 0.7-0.5 0.4-0.9 1.1-0.2-1.3-1.8-0.9-0.5-1.3 0.7 0.3 0.3-0.3-0.1-0.6-0.4-0.3-2.6 0.4 0-0.4 1-0.5 0.5 0-0.6-0.5-4.2 0.1-1.4-0.3-3.2-1.9-0.6 0.6-0.3-0.6-0.2-1.8-0.3 0.5-0.7-0.5-0.8 0.4-0.6 0.8-0.4 0.9-0.4 0.2-0.5-0.4-0.6-1-0.3 0.4-3.2-3 1.4-0.7 1-1.3 0.3-1.7 0-1.7 0.5-0.9 0.3-1.1 1.7-3.6 3.3-1.3 1.6 0.7 1.1-0.6-0.2-1.8 0.4-1.8 2.4-2.1 2.6-1.9 0.9-3.6-0.7-4 5.7-13 1.5-0.2 1.4-0.8 1.2-1.8 1.5-1.4 2-3.8 0.8-4.9 2.9-3.9 9.3-4.9 3.2-0.6 7.8-3.2 3.1 0.4 3.2 3.9 1.3 0.5 7.2-0.3 4.7 0.5 4.1 0 1.9-0.5 3.2-3.5 1-2.8 3.6-3.2 4.6 1.9 5.4-1.9 2.8-0.4 2.5-1.8 2.6-0.9 2.8 0.4 1.1 1.4 1.2 1.3 2.1 1.7 2.2 0.9 5.2 0 13.4 2.8 4.4 2.8 3.3 3.2 3.7 2.5 2.6 2.8 2.3 3.3 1.5 1.4 1.5 1.1 3.5 3.3 2 0.8 1.7 1.1 0.2 2-1.3 1-0.6 2 0.8 1.8 2.2 0.8 2.4 0.2 1.7 0.4 1.1 1.6 0.8 4.3-0.4 4.4z" id="TUR2271" name="Antalya">
 </path>
 <path d="M315.6 207.7l-0.7 4.5-0.5 1.7 1.6 1.6 0.9 0.6-0.4 2.7-4 6.6-1.6 3.2-0.8 3.5 0.1 1.4 0.2 1.3-0.2 1.5-4.5 6-4 4.2-9.2 6-1.3-0.4-1.2-0.7-2.3-3.4-1-0.8-1-0.6-1.3-0.2-1 0.9-2.6 2.8-6.5 5.3-3.2 3.7-3.3 3.1-4 1.6-1.1 0-1.1 0.3-3 2.4-2 0.5-1.9 0.8-2.5 2.9-2.8 2.5-2 1.2-4.7 4.6-3.5 2.1-1.1 2.1-0.7 6.8-1.7 3.2-3.7 2-4.1 0.2-4.7-0.3-4.2 1.5-2.3-4.1-0.6-0.5-0.8-0.2-1.4-0.7-0.7-0.3-2.4 0-1.2-0.5 0-6.7 0.8-1.9 1.7-0.7 1.6-0.8 14.1-10.6 1.4-1.7-0.8-4.4-1.4-1.7-5.6-9.4-7.2-1.7-0.1-1.8 1.2-1.5 1-2.8 0.7-2.6 3.2-3.1 0.8-2.5 0.3-2.8 10.8-6.5 1.5-1.9 2.1-3.6 1.4-4.5 1.4-2.8 0.8-3.1 1-2.7 6.2-2.8 3.6-5.6 1.9 0.4 1.4 1.4 0.8 2.2 1.2 1.5 0.9 0.5 0.8 0.7 2.4 1.3 2.4-0.4 1.8-0.9 3.5-2.3 3.3-3.3 1.9-1.4 2.6 1.2 2.2 2.6 3.8-1.7 3.8-2.9 2-0.5 1.9-1.3 1.8-1.6 2.1-0.6 3.7 3.9 2.6 5.9 3.9 3 6.7-0.7 4.1 0.1 2 0.5z" id="TUR2272" name="Afyonkarahisar">
 </path>
 <path d="M275.8 321.5l-3.6 3.2-1 2.8-3.2 3.5-1.9 0.5-4.1 0-4.7-0.5-7.2 0.3-1.3-0.5-3.2-3.9-3.1-0.4-7.8 3.2-3.2 0.6-9.3 4.9-2.9 3.9-0.8 4.9-2 3.8-1.5 1.4-1.2 1.8-1.4 0.8-1.5 0.2-4.5-6.1-6.2 0.8-2.6 3.2-2-0.8 0.9-3.8-1.2-3.3 0.4-3.6 0.9-3.4 1.4-3.1 5.1-7.7 2.3-4.6 0.2-0.6-0.2-0.9-0.3-0.6-0.4-0.3-0.7 0.1-0.6-2.5 0.1-2.6-0.5-1.8 0-1.8 6.7-3.5 0.5-1.5 0.7-1.4 1.5-0.9 0.8-0.4 2.1-1.2 3.7-3.1 4.2-1.5 4.7 0.3 0.7 2.2 1 2 2 0.7 1.9-0.9 5.8-4.3 1.5-0.8 1.4-1 2.4-2.5 2.6 1.9 2.3 3.3 2.1 2.1 2.2 1.8 3.7 0.6 3.3 0 3.1 1.9 1.7 5.3 1.4 3.2 3.2 4.8 0.5 1.2 0.9 1.1 0.8-0.1 1.6 0.2 1.1 1.5 0.7 1.9z" id="TUR2273" name="Burdur">
 </path>
 <path d="M219 296.6l-3.7 3.1-2.1 1.2-0.8 0.4-1.5 0.9-0.7 1.4-0.5 1.5-6.7 3.5 0 1.8 0.5 1.8-0.1 2.6 0.6 2.5 0.7-0.1 0.4 0.3 0.3 0.6 0.2 0.9-0.2 0.6-2.3 4.6-5.1 7.7-1.4 3.1-0.9 3.4-0.4 3.6-2.5 2-0.3 4.2-0.6 1.7-1.1 1.4-1.8 0.9-5.2-2.8-2.9-0.2-1.2-1.3-0.2-1-0.2-2.2-0.4-2.5-0.7-2.5-3.2-3-3.8-1.8-0.6-0.7-1-1.8-0.6-0.7-3.9-0.5-1.7-2.6-0.7-3-1.5-2.7-2.5-1-1.8 0-1.4-0.5-0.5-1.9 0-1.9 0.2-1.3-0.6-1.2-0.3-0.9-0.4-0.9-1.1-0.6-0.6-2.5 1-2.5 3.7-1 4 0.5 2.8-2.7 2.4-3.4 2-0.1 1.6-1.2 0.2-1.8-0.5-1.5-3.4-0.7-1.1-1.7-0.8-1.7-1.1-1.5 0.1-1.7 1.2-0.9 0.4-1.4-0.8-4 0.1-2.2-0.6-2-2.9-2-0.7-1.4-0.6-1.5 2.4-0.1 2.1-1 0.7-1.6-0.2-1.8 2.3-4.5 4.9-1.1 3.1 0.7 2.8 1.7 2.9 0 2.7-1.8 1.8 0.3 1.7 1.9 1.7 0.1 1.7-0.6 1.4-0.7 1.3 0.9 0.6-0.1 0.7-1.3 0-0.9 2.6-2 3.7 0.4 4-0.1 1.9-0.6 1.7-1.5-0.4-3.9 0.4-4 6.5-1.5 7.2 1.7 5.6 9.4 1.4 1.7 0.8 4.4-1.4 1.7-14.1 10.6-1.6 0.8-1.7 0.7-0.8 1.9 0 6.7 1.2 0.5 2.4 0 0.7 0.3 1.4 0.7 0.8 0.2 0.6 0.5 2.3 4.1z" id="TUR2274" name="Denizli">
 </path>
 <path d="M292.5 252.5l1.5 4.9 4.1 3.3 3.1 4.2 3.6 3 1.8 0.7 1.2 1.8 3.8 3.3-0.4 2.2-3.3 2.1-3.7 1.4-1.7 1.1-1.1 4.3 1.2 5.2 0.1 5.1-2.1 3.5-0.3 3.1-1.7 2.1-2.2 0.7 0 2.3 1.3 2 0.7 2.4-0.5 3.9-1.4 3.7-2.8-0.4-2.6 0.9-2.5 1.8-2.8 0.4-5.4 1.9-4.6-1.9-0.7-1.9-1.1-1.5-1.6-0.2-0.8 0.1-0.9-1.1-0.5-1.2-3.2-4.8-1.4-3.2-1.7-5.3-3.1-1.9-3.3 0-3.7-0.6-2.2-1.8-2.1-2.1-2.3-3.3-2.6-1.9-2.4 2.5-1.4 1-1.5 0.8-5.8 4.3-1.9 0.9-2-0.7-1-2-0.7-2.2 4.1-0.2 3.7-2 1.7-3.2 0.7-6.8 1.1-2.1 3.5-2.1 4.7-4.6 2-1.2 2.8-2.5 2.5-2.9 1.9-0.8 2-0.5 3-2.4 1.1-0.3 1.1 0 4-1.6 3.3-3.1 3.2-3.7 6.5-5.3 2.6-2.8 1-0.9 1.3 0.2 1 0.6 1 0.8 2.3 3.4 1.2 0.7 1.3 0.4z" id="TUR2275" name="Isparta">
 </path>
 <path d="M210.3 152.7l-0.9 5.8 0.3 2.8 1.7 3.7 0.9 1.1 2.1 1.3 1.8 0.8 5.8 4.1 2.2 0.7 4.1-1.2 3.9-0.5 2-0.5 2 3.3 5.7 5.5 1.4 4.1 0.7 5.2 5.2 6.9 0.9 4.3-3.6 5.6-6.2 2.8-1 2.7-0.8 3.1-1.4 2.8-1.4 4.5-2.1 3.6-1.5 1.9-10.8 6.5 0-6.9-2.5-2.9-1.5-0.6-6.5-1.5-3.3 0-1.4 0.5-1.4 0.8-0.9 3.7-1.3 3.1-3 0.3-6.5 1.8-3.8 0.2-3.5-0.5-3.2-2-3 0-2.9 2.4 0.2-4.2-1.1-3.1-1.7-3.2 0.5-4.1-0.4-1.1-0.5-1.1-3.3-5.3-1.6-1-7.8-1.7-1.1-0.9-2.6-2.9 0.3-0.7-0.1-1.7-0.3-0.8 0.5-2.3 2-1 3.8-1.3 1.7-1.2 1.6-2.9 0.4-1 1.2-1.5 1.2-2 0.7-4.8 0.7-1.9 0.6-0.6 0.4-0.9 0-1.3 0.3-1.3 1-2 2 1.6 2.3 0.5 3.7 0.5 3.7-0.1 2.9-1.8 0.3-4.5 1.1-3.1 2.4-1.8 1.5-5.4 1-1.1 0.6-1.6 1.1-4 2.6-1.9 5.5 2.2 1.6 0.2 1.7-0.3 1.5-0.7 1.6-0.2z" id="TUR2276" name="Kütahya">
 </path>
 <path d="M157.2 203.4l2.6 2.9 1.1 0.9 7.8 1.7 1.6 1 3.3 5.3 0.5 1.1 0.4 1.1-0.5 4.1 1.7 3.2 1.1 3.1-0.2 4.2-1.9 2-4 3.1-0.6 1.4-1.6 1.7-1.5 0.5 0.2 2.4 1.5 0.5 1.2 1.5 0.2 1.4 0.1 1.6 0.3 3.3-0.3 3.1-0.7 2-1.1 1.7-1.4 1.3-0.5 1 1.4 1 1.5 0.1 2 2.1-4.9 1.1-2.3 4.5 0.2 1.8-0.7 1.6-2.1 1-2.4 0.1-7.1-0.2-2.3-3.5-2.2-6.8-1.4-1.9-2.4-0.6-1.2-0.1-1.8-0.6-1-1.2-1.4-0.2-2 0.6-5.1 0.8-1.4-3.3-2.1-2.4-1.6 0.5-1.6 0-2.5-1.2-2.5-0.1-0.8 2.1-1.3 2.2-2.6 0.6-2.2-2-0.4-1-0.6-2.1-0.5-1-4-1.9-3.7-2.5-0.8-3.7-1.6-1.6-1.1-0.1-5.8 0.1-3.7-0.4-3.1-2.6-1.4-4.6-1.2-1.6-0.8-0.3-1.4-1.5 0.2-1.4 1.5-2.4 1.6-1.7 0.9-2.2 0.3-2.6 0.6-2.4 2.9-2 3.3-1.3 3.4-2.9 1.4-1.6 0.4-3.6-1.9-3.6-0.9-2.4-1.7-8.1-2-5.2 4-2.1 2.4 1.2 2.2 1.8 3.7 1.1 3.7-0.5 2.1 0.1 2.1 1.1 0.8 0.1 1.7-0.3 0.8-0.1 1.3 2.2-1.6 2.8-0.6 2.3 2.1 1 3.9-1.4 0.8 0.4 0.4 1 4.3 4.7 2.6 6 2.4 0.9 2.2-1 2.3-0.4 1.9-1.2 1.4-1.9 2.2-0.4 2.2 0.2 2-0.2 1.9-0.5 4.8-2.5 4.6 0.7z" id="TUR2277" name="Manisa">
 </path>
 <path d="M170.6 367.1l1.1 0.5-0.5 0.4-0.7 0.9-0.3-0.7 0.1-0.9 0.3-0.2z m-74.8-18.2l-0.4 0.2-0.4-0.3-1.1-0.4-0.2-0.6-0.3-0.4-0.6-0.4 0.4-0.3 1.6 0.8 1 0.3 0.5 0.4-0.1 0.5-0.4 0.2z m99.5-6.9l1.2 3.3-0.9 3.8 2 0.8 2.6-3.2 6.2-0.8 4.5 6.1-5.7 13 0.7 4-0.9 3.6-2.6 1.9-2.4 2.1-0.4 1.8 0.2 1.8-1.1 0.6-1.6-0.7-3.3 1.3-1.7 3.6-0.3 1.1-0.5 0.9 0 1.7-0.3 1.7-1 1.3-1.4 0.7-0.3-0.2-0.4-1-0.7-0.8-3.1-1-0.9-1.1-0.7 0.5-0.2-0.9 0.2-0.4 0-0.5-1.5 0 0.4-0.4-0.6-0.4-0.8-0.1 0.2-0.6 0.4-0.4 0.5-0.2 0.6-0.1-0.3-0.5 0.3-1.2-0.3-1.1-0.6-0.8-0.8-0.5 0-0.4 0.7-0.5 0.7-0.3 0-0.5-0.2-2.3-0.3-1.1-0.5 0.3-0.4 0-0.7-0.8-2.5 1-1.1-0.2 1-0.2 0.2-0.7-0.3-0.8-0.6-1 0.3-0.4 0.5-1.2 0.3-0.7 0.8 0.7 0.6-0.6 0.7-1 0.8-0.3 0 0.4-0.3 0.7 0.4 0.2 0.6-0.2 0.3-0.5-0.4-1.2-0.6-0.8-3.3-2.3-4-1.8-0.6-0.6-0.3-0.9-0.9 0.6-0.9 1.2-0.7 0.7 0.3 0.4 0 0.5-1 0-0.8 0.4-0.1 0.5 0.1 1.1-0.7 0.2 0.3 0.5 0.4 0.4-0.3 0.5 0.7 0.8 0.3 0 0.6-1.1 0.1-0.6-0.3-0.9 0.9 0.8-0.3 1.1-0.9 1-0.8 0.6 0.4 0.7-0.6 0.3-0.9 0.1-0.7-0.1-0.5-0.6 0-0.6 0.4-0.5 0.8-0.2 0-0.4-0.8-0.5-0.6-0.4-0.5-0.3-0.9 0.3-0.3-1.7-1.9-1.3-2.3-0.5-1.6 0.8-0.3 0-0.3-1.2-0.5-0.5-0.7 0.3-0.7 1-0.4-0.5-0.6-1.8 0.5-0.9 0.2-1.2-0.2-1.2-0.5-0.7 0.3-0.4-0.3-0.9-0.3 0.8-0.4 0.3-0.1-0.6-0.7-0.8-1.5-0.2-1.1 0.6 0.1 1.6-0.5-0.4-1-0.2-0.6-0.2 0.7-0.5 0-0.4-1.2 0-0.7-0.2-0.4-0.7-0.2-1.3 0.6-0.1 0.1-0.6-0.3-0.3-0.2-0.9-0.5-0.3-0.1 0.6-0.4 0.6-1.1 0.3-1.5 0.2-0.5 0.2 0 0.3 0.7 0.9 1.2-0.1 0.6 0.5-0.6 0.9-0.4 1-0.5 0.7-1 0-2.7-1.4-0.6-0.3-0.3 0 0.3 1.3-1.3 0.1-0.6-0.2-0.2-0.5 0.2-0.6 0.6-0.3 1.3-0.3 0-0.4-0.6-0.4-0.7-0.7-0.8-0.4-0.9 0.4-0.7 1.1-0.3 1 0.1 1 0.7 0.6-0.2 1.5 2.1 1.5 0.3 1.5-0.6-0.4-0.8-0.3-0.8 0.2-0.3 1-0.7-0.5-0.1 1 0.1 0.4-2.7 0.9-1 0.8-1 1.4-0.7 1.4-1 1.6-1.2 1-1.4-0.4-0.3 0.6-0.7 0.2 0.3 0.9-0.6 0.3-0.5 0.1-0.4-0.2-0.3-0.6-0.5 0.9-0.7 0.1-0.6-0.4-0.6-0.6 0.3-0.9-0.7-0.8 3.9 0 1-0.5 0.6-0.6 0.5-0.8 0.8-0.8-0.7-0.9-1 0.9-0.5 0 0.5-0.6 0.2-0.8-0.2-0.8-0.5-0.5-0.6-0.2-0.1 0.8-0.2 0.3-0.6 0-1-0.5-0.4 0.2-0.6 0-0.5-0.3-0.2-0.6 0.2-0.2 1.9-0.4-0.4-0.5 1.1 0.1 0.4-0.1 0.5-0.5 0.2-0.4 2-0.1 0.5-0.3-0.2 1 0.8 0.1 0.8-0.6 0-1-0.5-0.3-1-0.1-0.3-0.5 0.1-0.4 1-0.9 0.4-0.5 0.3 0.8 0.7 0.6-0.3-1.1 0-1.4-0.3-0.5-0.6-0.2-0.6 0.1-0.5 0.3-0.9 1.4-1.1 0.8-0.4-0.1-0.3-0.7-0.8 0.8-2 0.6-0.7 0.4-0.4 0-0.3-0.8-0.5 0.3-0.6 0.6-0.8 0.4-0.2-0.9-0.4 0.1-0.8 0.8-0.7-0.7-0.3-0.1-0.4 0.8-0.4 0-0.6-0.6-0.9-0.5-1.1-0.2-0.9 0.4 0-0.4-0.7 0.3-0.6-0.1-1.4-0.2-0.9 0.3-1.1 1.4-0.7 0.5 0.1 1-0.7 2-0.1 1.5-1.8-0.9-0.9-0.4-0.9-0.1-0.9 0.1-0.8 0.2-0.5 0-0.3-0.7-3.6 1.3-0.4 0.7-0.5 0.1-0.7-0.7-0.3-0.1-1.7-0.3-0.6 0.3-0.2-0.8-0.4-0.5-0.5 0-0.7 0.4-0.1-1.2-0.7-0.6 0-0.4 0.7 0.3 0.8 0.2 0.9 0 0.7-0.3 0.4-0.7 0.3-1 0.5-0.8 0.6-0.4 0.5-0.1 1.3 0.1 3.8-0.6 1.9 0.2 1-0.3 0.2-0.7 0.1-0.9 0.3-0.8 1.1-0.3 2.4 1.4 0.8-0.3 0.8 0.5 1.4-0.2 0.6 0.2 1.3-1.3 0.7-0.3 4.6-0.2 0.6-0.2 0.3 0.4 0.8 0.4 1.1 0.3 1 0 1.8-0.2 0.9 0.3 0.9 0.8 0.1-0.7 0.3-0.3 1-0.8-0.3-0.7-0.5-0.4-0.7-0.2-1 0 0.3-0.4 0.5 0.1 0.1-0.3-0.7-1.3 0.5-0.3 0.4 0.2 1.4-0.7 0-0.4-1-1.1-0.8-1.2 0.7 0.5 0.4-0.5-0.3-0.2-0.4-0.7 1.7 0 0-0.4-1 0 0-0.5 1.2 0 0.5 0.1 0.4 0.4 0.6-0.4 0.5 0.4 0.4 0 0.5-0.4 1.1 0.6 0.8-0.2 0.1 0.5 0.3-0.1 0.2-0.5-0.6-0.4 0-0.4 0.9 0 0.6 0.4 1-1.8 0.4-0.4 0-0.5-0.7 0 0.4-0.6 0.3-0.7 0.8 0.7 0.9 0.1 0.4-0.3-0.3-1 2.8-1.1 1.5-0.3 0-0.5-0.8-0.7-0.5-0.2-6.8 1-2.5 0-1 0.2 0.2 1.2-0.9-0.5-5.6-0.9-0.6 0.2-0.6 0.6-0.6 0.1-0.6 0-1.5-0.4-1.3 0.1-4.3 1.4-0.8-0.2-0.4 1-0.9-0.3-0.6 0-0.7 0.3-1-0.8-1.7 0-1.6 0.6-1 1-1-0.6-1.4-0.5-1.2 0.1-0.3 1.5-1.2-0.9-0.6-0.3-0.7-0.1-1.6 0.1-0.6-0.1-0.5-0.5-0.9-1.4-0.4-0.4-0.7 0.1-0.8 0.6-0.6-0.7-0.1 0.6-0.6 1.7-0.2-0.4 0.2-0.6-0.4-0.4 0.3-0.3-0.3-0.6-0.5 0.4-1.3 0.2-0.7 0.3 0.2 1.1-0.3 0.8-0.6 0.5-0.7 0.3 0.3 0.9-0.7-0.1-0.4 0.1-0.3-0.5-0.9 0.2-0.5-0.9-0.3-1.5-0.1-1.1-0.2-1.1-0.5-0.8-0.2-1 0.6-1.4 0.4 0 0.9-0.4 0.9-0.6 0.6-0.8-0.8-0.4-0.4 0.1-0.5-0.2 0.5-0.7 1.7 0.6 1-0.3-0.1-0.4 0.2-1.1-0.1-0.7 0.5 0.1 0.4 0.4 0.2 0.6-0.1 0.7 0.4 0 0.3-0.7 0.3-0.5 0.4-0.1 0.4 0.4 0.4-0.5 0 1.1 0.1 0.3 1 0 0.7 0.6 0.7 0.2 0.7 1.4 0.8 0.5 0.8-0.2 1.3-1 1.1-0.5 1-0.7 1.2 0 0.6-0.3 0-0.5-0.7 0.2-0.4 0.3-0.4-2-0.4-1.1-0.6-0.5 0-0.5 2.4-0.5 0.7 0.1-0.6 1.4 1-0.5 0.8-0.9-0.8-0.3-0.3-0.5 0-1.3 0.1-0.2 0.7-0.5 0.4-0.8 0.2-1.3-0.7-0.5-0.4-0.1-0.3 0.6-1.3-0.1-0.6 0.2-0.2 0.5-0.3 1-0.7 0.9-0.8 0.4-0.7-0.3 0.9-0.8 0.1-0.8-0.6-0.6-1.2 0-0.6 0.8-0.5 0.2-0.3-0.3 0.1-0.7 0.4-0.6 0.9-1.2 0-0.5 0.2-0.7 0.1-0.9-0.6-1.1-0.4 0-0.2 1.9-1.2 0.6-1.4-0.2-1.1-0.9-0.5-1.5 0.5-1.3 0.9-1.1 1.2-0.6-0.6-1-1-0.4-0.2 0 0.6-1.1 2.8-6.1 0.7-1.1 1.6-0.9 1.7-0.1 1.9 1.2 2 0.8 4.2 0.6 3.7 2.5 2.3 0.4 2.4-0.6 2.4 0 2.2 1.1 3.7 0.2 6.3-0.5 2-1.6 1.9-3.7 2.8-1.9 3.8 0.8 3.2 2.7 3.8 2.1 6.9 0.9 0.6 1.2-0.2 1.3 0 1.9 0.5 1.9 1.4 0.5 1.8 0 2.5 1 1.5 2.7 0.7 3 1.7 2.6 3.9 0.5 0.6 0.7 1 1.8 0.6 0.7 3.8 1.8 3.2 3 0.7 2.5 0.4 2.5 0.2 2.2 0.2 1 1.2 1.3 2.9 0.2 5.2 2.8 1.8-0.9 1.1-1.4 0.6-1.7 0.3-4.2 2.5-2z" id="TUR2278" name="Mugla">
 </path>
 <path d="M702.3 267.9l1.3 0.9 4.2-1.8 1.6 1.7 0.2 1.8-0.4 1.5-1.2 2.7 0.5 0.9-0.5 0.8-1.9 1.4-2 1.5-3.2 0.9-0.9 0.5-0.6 0.8-0.2 0.9-0.3 2.2-0.5 1-0.7 0.5-2.6 0.8 0.6 1 0 0.8-0.3 0.9-0.6 0.9 0.4 0.8-0.1 0.6-0.3 0.5-1.4-0.4-0.4-0.1-0.8 0.3-0.7 0.6-0.6 0.8-0.4 1 0.7-0.2 1.5-1 0.6-0.1 0.6 0.5-0.1 1.7 0.6 0.9-1 0.3-1.2 0.1-1 0.2-0.7 0.8 0.4 0.3 1.4 1.5-0.8 0.5-0.5 0-0.9-0.6-0.3 0.3-0.6 0.7-0.8 0.4-0.7-0.1-0.8-0.8-1 0.7 0.9 1 2.6 2-11.6 1.8-2.5 2.7-0.5 0.2-0.7 1.2-3.1 3.3-1.1 0.7-6.4 1.1-1.6-0.7-3 1.2-0.6 0-0.3 1.5-0.8 0.3-2.3-0.3-0.4 0.4-0.1 1.6-0.6 0.7-0.5-0.1 0-0.6-0.3-0.1-2.3-0.6-0.9-0.5-0.7-0.8-1.5 1.1-0.6 0-0.8-0.6-4.1-3.6-6.1-2.3-5.7-0.1-5.7 1.2-5.7-3.5-3.1-1.1-1.8-3 0-3.9 2.1-2.6 2.9-2.6 2.5-3.2 7.4-1.4 4.6-1.9 4.8-0.7 2.2 0.7 2.3 0.3 1.8-0.6 1.9-0.9 4.3-1.1 3.2-2.8 0.1-3.5 1.4-2.6 4-2.2 3.3-5 3.8-4.4 3.7 0 3.1-0.9 3 0.6 0.2 2.2-2 1.9-1.1 0.7 0.4 1.4 0.9 0.4 0.8 0.6 3.1 0.8 3.7 0 3.6 0.6 3.8-0.8 1.5-0.1 1.4-0.3 2.1-1 2.3-0.5 2.8-1.4 2.4-2.7z" id="TUR2281" name="Adiyaman">
 </path>
 <path d="M764.1 248.9l-17.5 0.6-0.8-0.4-1.8-1.4-1.2-0.6-2.4 0.5-0.8 2.1-1.1 2.2-1.3 2-1.6 1.1-1.8 0.6-4-0.3-3.9 0.4-1.5 0.8-4 0.6-2.2 1-4.5-0.4-4.3-1.1-7.1 1.2-2.2-0.3-4.2 1.5-1.9-0.3-1.5-1.4-0.9-0.6-1.3-0.2-0.1-0.4-1.2-1.9-0.4-0.4-1.4-1 0.4-0.5-1.2-0.9-1.7 0.2-3.1 1.2-1.5-0.1-4.3-2.2-1 0.3-1.1-1-1.4-0.4-3-0.4-0.7-0.2-0.7-0.4-0.7-0.6-0.9-1.2-0.6-0.3-0.6 0.6-0.8-0.7-0.7-1.2-0.5-1.4-0.1-1.1-0.2-0.6-0.3-0.4-0.2-0.5 0.8-1.4 0.6-1.9 0.6-1 0.8-0.9 1-0.6 1.3-0.2 0.7-0.4 0.7-1 0.3-1.2-0.4-1.1 0.6-0.8 1.4-0.2 5.7 0.5 0.7-0.2 0-0.7 0-0.9 0.2-0.4-0.6-2.1 0-1.4-0.3-4.2-0.6-1.9-0.9-1.7 0-2.8 1.4-1.9 3.7-0.2 1.4-0.7 1.6-0.3 2 3 0.1 2-0.8 1.7 0 1.9 2.2 2.2 1.5 0 4.1-1.1 4.1-0.3 2.2 1 1.6-0.3 0.5 0 1.6 1 1.7 0.1 2.1 0.7 2.1 0.2 2.4 1.1 2.3 1.6 2.3 0.7 1 0.7 1.2 1.5 1.3-0.3 1.3 0.6 1.3 0.4 1.6-1.1 1.3-1.7 1.8-0.4 1.9 0.1 5-0.3 4.9-1.9 3.2-3.6 1.4-2.8 0.7-3.2-0.2-2.3-0.6-2.6 0.7-1.1 1-0.7 2.6-0.6 2.8-0.2 11.9-6.4 1.8-0.6 4.3-1.9 1.6 3.2-2.2 4.3-2.6 3.7-1 4.7 1.2 5.2 3.2 3.9 0.9 2.2-0.3 2.4-0.7 2.6-1 1.8-1.7-0.6-1.6-0.3-2.4 7.1 2.8 4.2 0.5 2.9 0.2 3.1z" id="TUR2282" name="Elazig">
 </path>
 <path d="M606.8 240.5l-3 5.2 0.6 3.9 0.9 0 1.9-0.4 1-0.1 7.8 1.7 6.6 3.9 3.6 1.1 4.1 1.9 2.5 4.5-0.3 2.7-2.9 7.6-0.3 2-1 1.6-0.8 0.8-1.2 2-2.7 9.7-2.1 3.9-2.5 3.2-2.9 2.6-2.1 2.6 0 3.9 1.8 3 3.1 1.1 5.7 3.5-0.1 2 0.4 1.9-0.7 3-2.2 1.5-3.3-0.1-3.3 0.4-7 2.5-6.5 1.1-2.9 1.5-4.7 5-4-1.3-1.5-5.9-2.6-1.6-2.4 3.4-6.3 2.9-2.3-3.4-2.8-2.6-1.8-1.3-2-0.5-5.7 1.1-2 0.8-1.7 0.3-0.9-1-1.3 0.5-0.5 0.3-0.3 0.6-0.5 0.1-2.2-2.6-0.2-4.4-0.6-0.8-0.7-0.7-0.6-1.9 0.4-2 1.5-1.6 1.1-1.9 0.1-5.2 1.4-1.9 1-0.5 1.7-1.7 0.2-2.7-1.7-4.1-0.3-3.1 0.1-2 0.6-4.4 1.6-4.2 2.6-11.8 1.6-4.1 2.9-2.8 1.9-2 1.7-2.4 4-4.7 1.6-2.7 0.7-3.5 1-2 1.7-1.1 6.9-1.7 6.8 0.9 1.3 0.9 1.3 0.6 11.7-1z" id="TUR2283" name="K. Maras">
 </path>
 <path d="M680 212.4l-3.7 0.2-1.4 1.9 0 2.8 0.9 1.7 0.6 1.9 0.3 4.2 0 1.4 0.6 2.1-0.2 0.4 0 0.9 0 0.7-0.7 0.2-5.7-0.5-1.4 0.2-0.6 0.8 0.4 1.1-0.3 1.2-0.7 1-0.7 0.4-1.3 0.2-1 0.6-0.8 0.9-0.6 1-0.6 1.9-0.8 1.4 0.2 0.5 0.3 0.4 0.2 0.6 0.1 1.1 0.5 1.4 0.7 1.2 0.8 0.7 0.6-0.6 0.6 0.3 0.9 1.2 0.7 0.6 0.7 0.4 0.7 0.2 3 0.4 1.4 0.4 1.1 1 1-0.3 4.3 2.2 1.5 0.1 3.1-1.2 1.7-0.2 1.2 0.9-0.4 0.5 1.4 1 0.4 0.4 1.2 1.9 0.1 0.4 1.3 0.2 0.9 0.6 1.5 1.4 1.9 0.3 4.2-1.5 2.2 0.3 0.9 1 0.6 1.4 0.2 1.6-1.7 6.1-2.4 2.7-2.8 1.4-2.3 0.5-2.1 1-1.4 0.3-1.5 0.1-3.8 0.8-3.6-0.6-3.7 0-3.1-0.8-0.8-0.6-0.9-0.4-0.4-1.4 1.1-0.7 2-1.9-0.2-2.2-3-0.6-3.1 0.9-3.7 0-3.8 4.4-3.3 5-4 2.2-1.4 2.6-0.1 3.5-3.2 2.8-4.3 1.1-1.9 0.9-1.8 0.6-2.3-0.3-2.2-0.7-4.8 0.7-4.6 1.9-7.4 1.4 2.1-3.9 2.7-9.7 1.2-2 0.8-0.8 1-1.6 0.3-2 2.9-7.6 0.3-2.7-2.5-4.5-4.1-1.9-3.6-1.1-6.6-3.9-7.8-1.7-1 0.1-1.9 0.4-0.9 0-0.6-3.9 3-5.2 3.1-1.4 2.6-2.5 2.7-3.1 1.1-0.4 2.3-1.5 3.7-4 0.8-2.5-0.3-1.5-0.6-1.4-0.9-3-0.5-3.2 1.1-2.6 2.3-0.6 4.4 2.2 4.4-0.9 1.8-1.3 2-0.8 1.9-1.3 1.9-0.9 4.1-0.1 1.7-0.8 1.9-0.3 3.5 0.5 3.4-1 3.7-2.9 4.1-1.4 4.1 2.1 5 0.3 2.3 0.9 2.2 1.3 3.4 4z" id="TUR2284" name="Malatya">
 </path>
 <path d="M476.9 321l1.7 3.9 1.9 3.7 2.5 1.9 0.2 6.7 1.2 3.8 2.4 1.8 3.2-0.1 2 2-1.5 4.1 0 3.7 0.7 3.7 0.2 1.8-0.2 1.8-1.9 1.8-2.2 0.6-2.8 1.9 0 0.1-1 0.2-0.7 0.3 0.3-1.3-0.7-0.4-2.1-2.3-4.3-2.2-0.3 0.4-1.5-0.8-2.3 0.5-3.4 1.6-1.6 0.3-0.6 0.2-1.6 0.9-0.3 0.3-0.5 1.2-0.3 0.3-1.6 0.9-4.5 4.1-5.7 3.6-1.6 1.4-4.5 5.7-0.4 1-0.2 0.6-0.5 0.5-1.1 0.5-1.9 1.9-1.8 1-0.1 1.7 0.3 2.1-0.1 1.7-1.1 0.9-1.6 0.3-1.4 0.5-0.5 1.4 0.3 0.1-1 1.3-0.4 0.8-0.2 1 0 0.7-0.3 0.5-0.9 0 0-0.4 0.5-1.2-0.3-1.8-0.8-1.6-1.1-0.7-0.7-0.3-0.7-0.4-0.6-0.2-0.8 0.7-1 1.6-0.9 0.9 0.3 0.4-0.6 0.5-0.8 1.4-1.1 0.3-1.8 0.8-0.4 0.3-1.6 1.7-0.2 0.7-0.3 1.8-0.5 0-1.3-2-0.2-0.9-0.5-0.3-0.7 0.2-0.7 0.3-1.2 1.1-1.2 1.5-1.1 1.1-1.2-0.2 0.7-0.4 0-0.4-1.2-0.2-2.2-0.6-1-0.1-1.2 0.2-1.8 1-0.8 0.1-2-0.7-1.1-0.1-0.9 1.1-1.2 0.2-2.3-0.1-1.5 0.5-0.6 0-0.7-0.1-1.1-0.6-0.5-0.2-1.2 0.4-0.7 0.8-0.5 1-0.7 0.9-0.5 0.4-0.9-0.4-0.7-0.1-1.6 0.1-3.5-0.8-1-0.1-3.3 1.8-0.6 0.2-0.5 0.7-2.8 2.2-2.2-0.1-4.7-1.1-2-1-3.1-2.1 0.1-0.4 0.8-1.3 0.4-1.5 0.2-1.7 0.7-1.7 0.9-1.6 0.8-3.1-0.3-7.2 0.5-3.8 3.4-0.4 3.4 0.9 3.2-0.1 2.9-1.3 3.1-0.8 3.2 0.2 1.7-0.3 1.2-1.2 0.7-2.4 0.7-2.1 0.7-0.3 0.8-0.2 1.9 1 2 0.8 1.3-1.7-1.2-2-2.4-1.8-2.8-0.7-1.1-0.9-1-1.3-1.3-0.6-0.7-1.7-0.5-1.9-0.9-1.5-1.1-1.3-0.1-2.1 2-0.4 0.8-0.3 2.4-1.5 1.5-0.6 0.7 0.4 0.5 1.2 1.9 0.5 1.1-1.9 0.6-2.9 1.7-2 2-0.6 1.7-1.3 1.7-1.5 1.9-1.2 2.1-0.6 6.6-0.6 4.2-1.6 4.3-0.4 1.8 0.6 1.3-0.2 1.9-1 3.8-0.7 5-3.9 1.9-0.8 3.9-0.3 3.7-1.4 1.8-2.2 1.4-0.8 4.5-1.6 3-1.5 2.3-2.2 1.6-0.9 2.7-0.9 1-0.7 0.6-2.1 3.9-0.1 1.8-0.6 1.6-1 3.6-1.6 3.7 0.9z" id="TUR2285" name="Mersin">
 </path>
 <path d="M474 187l-2.9 0.5-3.4-0.8-1.1 0.7-0.2 1.5 0.4 2.4 1.2 2 0.6 3.5-0.7 4.4 1.5 2.7 1.2 2.6-2.2 2.8-3.2 1.4-2.8 1.8-6.3 2.6-1.2 3.6 0.7 3 0.2 1.5-2.1 0.6-5.8-4.9-1.1 0.2-2.3-0.3-1.1 0.3-2.6 1.6-2-1.9-0.8-2.6-2-1-1.2 0.1-2.1-0.4-0.7-1 0.3-2.3-3.2-1.2-0.7-0.7-1.7-0.8-2.8-0.2-1-0.8-0.9-1.3-0.7-0.6-0.9-0.3-2.6-2.2-5.9-3.7-1.1-3.8 5.9-10.3 8.4-6.8 3.6-5.7 2.4-7 8.3-8 1.1 1 1 1 2.9 0 2.7 2.6 2.6 3 2.4 0.8 4.1 0 1 1.5 0.5 1.5 0.6 1.4 7.2 8.9 2.3 1.5 2.6 0.5 2.3 1.9 1.3 3.2z" id="TUR2286" name="Kirsehir">
 </path>
 <path d="M578.8 240.8l-1.7 1.1-1 2-0.7 3.5-1.6 2.7-4 4.7-1.7 2.4-1.9 2-2.2-2.3-1.3-3.5-2-3.1-2.7-1.2-4.2 1.1-4 2.3-2.3 1.9-2.2 5.5-1.5 2-2.2 4.6-2.8 3.9-19.4 13.3 1.2 12.1-2.8 1.3-6.4-2.5-4.7-1.2-9-0.7 0.9-4.1 0.2-3.4 2.4-1.5-0.5-2.4-1.1-2.3-0.2-2.8 0.5-2.8-1.4-4.5-8.5-0.1-3-3.2-3.7-10.2 1.4-2.7 2.1-2.3 4.6-7.4 0.3-3.1-0.6-3.1 0.2-3.1-3.6-4.7-2.4-4.9 1.4-3.4 1.1-3.6 0-1.6 0.1-1.7 0.6-1.4 0.7-1.2 11.8 1.9 5.9-3.8 2.3-0.8 16.9-11 4.4-6.1 2.7 0.2 2.6 1.3 0.4 0.7 0.7 1.4 0.4 0.5 1.7 0.7 1.7 0.3 5 3.6 5.1 0.7 4-1.4 8.6 1.2 2.6 2 2.6 0.9 4.7-1.6 4.9 0 4.4 0.9 4.2 2.2 1.9 6-2.2 6.3-1.2 2.5-1 2.5-1.4 5.3-2.1 6.1-0.2 1.1-0.4 1-1.2 2.2-0.2 2.8z" id="TUR2287" name="Kayseri">
 </path>
 <path d="M474 187l0.9 0.2 1.5 0.7 0.4 0.8 0.2 1.5 0.5 1.3 1.3 1.6 1.7 0.9 1 2 0.7 2.7 4.2 2.6 1.1 2-0.4 1.6 0.2 1.6 0.4 1.4 0.8 1.6 0.7 1.7-0.7 1.2-0.6 1.4-0.1 1.7 0 1.6-1.1 3.6-1.4 3.4 2.4 4.9 3.6 4.7-0.2 3.1 0.6 3.1-0.3 3.1-4.6 7.4-2.1 2.3-1.4 2.7-5.4 2.1-2.7-0.7-2.2-2.2-1.4-0.8-3.1 0.1-4.4 1.4-3-0.5-1.9-1.2-1.8-1.8-2.1-1.7-0.9-0.9-0.1-3.2 1.6-3.4-0.4-3-1.1-0.4-2.3 0.5-2.6-0.8-2.4-1.6-0.7-3.3 1.8-3.1 0.8-3.3-1.7-6 0.6-2.7 5.8 4.9 2.1-0.6-0.2-1.5-0.7-3 1.2-3.6 6.3-2.6 2.8-1.8 3.2-1.4 2.2-2.8-1.2-2.6-1.5-2.7 0.7-4.4-0.6-3.5-1.2-2-0.4-2.4 0.2-1.5 1.1-0.7 3.4 0.8 2.9-0.5z" id="TUR2288" name="Nevsehir">
 </path>
 <path d="M543.1 345.8l2.3-0.4 2.1 0.6 2.2 0.1 2.4-0.7 2.4 0.8 1.7 1.8 2 1.3 2.6 0 2.6-0.3 3.4 3.4 4.2 1.9 0.9 0.8 0.4 1.4 0.7 0.5 0.8 0.1 0.5 0.6-1.1 0 0.2 1.6-0.6 1.2-0.8 1.2-0.7 1.3-0.2 1.4 0 1.3-0.2 1.2-0.6 1.6-0.7 2.7 0 2.9-0.3 2.8-1.5 2.5-0.2 1 0.1 1.1 1 3.5 0.6 0.8 1.1 0.5 0.4 0.9 0.1 1.1-0.7 1.5 0.3 0.6 1.7 0.2 0.9 0.3 0.6 0.7 0.5 1 0.4 1.1 0.2 0.9 0 1.4-0.3 0.6-3.7 0.7-1 0-3.9-0.6-1 0.1-0.6 0.2-0.2 0.9-0.3 0.4-0.4 0.2-2.1-0.3-0.7-0.3-0.6-0.4-0.7-0.8-0.6 0.6 0.8 0.9-0.1 0.5-0.7 0.9-0.1 1-0.2 9.3 0.1 1.9-1.1 0.3-2-0.8-1.1 0.5-0.4 2.2-0.8 0.2-1.3-0.3-1.7 0.6-1.1 1.9-0.3 4.5-0.6 1.9-1 0.2-3-2.2-1.6-0.7-1.6-0.1-0.8-0.2-0.6-0.5-0.1-0.8 0.1-0.8 0-0.9-0.7-0.7-1 0.2-1 0.3-1.1 0.3-0.4-0.2 0.5-0.9 2.3-4 0.6-0.5-0.1-1.1-1.4-4.5-3.7-6.1-0.7-0.9-0.6-1.1-0.6-2-0.7-0.9-0.9-0.7-0.6-0.8-0.6-1.5 0.1-1 1.4-2.1 0.4-0.6 0.5-0.3 1.2-0.2 0.3-0.3 0.6-1.5 0.4-0.5 0.9-0.5 0.5-0.4 0.3-0.6 0.2-1.3 0.7-0.4 0.6-0.7 2-0.7 0.5-0.3 2.4-3 0.4-0.7 0.6-0.1 5.6-3.6 0.8-0.1 0.5-0.5 0.7-1.2 0.5-1.3 0.2-1 0-0.9-0.5-1.1-0.2-1.2 0-4.1-0.2-1-0.5-1.1-3.1-4.4-1.7-1.8-2-1.4-2-0.5-1.8 0.7-1.8 1.6-0.9 1.1-0.9-1.3 0-2.7 4.3-4.9 1-0.7 1.1 0.3 1.2 0.4z" id="TUR2289" name="Hatay">
 </path>
 <path d="M563 86.6l-1.5 0.8 0 0.5 0.4 0 0 0.5-0.7 0.9 0.6 1.2 1.1 1 0.8 0.6 0.9 0.4 1 2.7-1.8 2.7-0.9 2.3 0 2.5-2.3 3.3-4.2 0.9-0.4 3.5-0.8 0.5-0.7 0.7-4.3 2.8-3.2 1.6-1-0.1-0.9-0.7-1-0.5-1.1-0.3-1.5-0.8-1.3-1.1-4.2-1.1-4.3 0.3-1.4 1.7-2.3 5.2-1.6 2.7-1.3 2-1.6 1.8-1.8 0.8-1 0.3-2.8 1.2-1.5 1.6-2.1 4.4-2.6-0.8-2.7 0.2-2.3-0.2-1-0.7-0.4-1.4-0.5-0.2 0.6-4.7 0-1.8 0.5-1.6 4.5-6.9 1.2-4.9 0-2.6-1.3-3.1-0.9-0.4-1.8-0.3-3.9-2.4-8.7-1.5-1.6-1-1.4-2.5-2.1-4.5-0.5-1.9 0.8-4.5 0.1-6.9 0.7-2.1 1.1-1.4 0.8-1.7-0.5-2 16.2 4.6 3.2-0.6 1.7 1 7.5 5.8 1.8 3.1 1.8 0.5 3.9-0.3 2 0.4 6.9 0.1 4.1 2 2.2-0.5 1.9-1.7 2.3-1.5 1.6-2.9 1-3.1 2-1.3 1.9 0.7 1.5 1.6 0.6 1.6 0.9 1.4 5.6 4.1z" id="TUR2290" name="Amasya">
 </path>
 <path d="M481.9 58.9l2.7 4.9 0.7 2.5 0.3 2.7 0.8 2.6 4-0.5 2 0.5 0.5 2-0.8 1.7-1.1 1.4-0.7 2.1-0.1 6.9-0.8 4.5 0.5 1.9 2.1 4.5 1.4 2.5 1.6 1 8.7 1.5 3.9 2.4 1.8 0.3 0.9 0.4 1.3 3.1 0 2.6-1.2 4.9-4.5 6.9-0.5 1.6 0 1.8-0.6 4.7-2.1 0.8-5 0.4-0.5 3 0.7 0.8-0.2 1.2-0.6 1.5-0.1 1.3-1.4 1.9-4.1 2.4-2.4 0.3-4.4-1.3-7.8 3.8-4.2 0.3-2.1-0.2-3.1 1.2-8-1.5-5.1 1.7-4.9 2.3-8.2 1-3 1.4 0-3.5 1.4-2.8 1-1.7 0.2-2.2-0.7-2-0.2-1.5-1-1.1-1.2-0.2-1.3-1.3-2.2-4.9-0.6-3.2 4.2-2.4 1-0.2 1-0.5 1.5-2.6 1.2-2.8 0.7-0.5 0.1-1.8-0.3-1.8-0.6-1.8-0.8-1.7-1.3-2.1-0.7-2.6 0.2-2.5-0.4-2.4-1.3-2.5-0.3-3 1.1-2.7 0.6-2.7-2.6-4.3 4.6-1 7.4-3.1 1.2-3.4-1.7-1.9-1.1-0.4-1-2.6 0.6-1.4 1.8-2.2 1.8-4.5 2.4-2.2 1.2-1.5 1.5-3.8 1.8-2.6 2.7-0.6 1.4 1.7 1.9-0.1 1.2 0.2 0.8 1 1.8 0.3 1.7-0.4 1.6 0.4 1.3 1 0.5 1 0.9 0.6 6 1.9 1.1-1.4 0.9-0.8 0.4-0.9 0.1-1.2 0.1-0.5z" id="TUR2291" name="Çorum">
 </path>
 <path d="M703.8 93.4l-6.3 0.8-0.4 0.8-0.2 1-1 0.5-1.3 0.4-1.5 1.3-1.6 1.1-0.7 1.7 0.7 2.2-1 1.8-1.6 1.6-0.5 0.8-0.1 0.5-0.4 3.1 0.1 2.5 1.5 1.7 6.1 1.5 1.5 1.2 1.4 1.5 1.2 0.4-0.3 2.5-1.6 1.2-5.2 3-1.2 1.4 0 2.2 0.2 2.3-0.2 2.5 0.4 2.4 1.5 1.8-0.5 2.3-2.1 1-4.6 0.3-2.3-0.2-5.2-2.6-5.5-1.7-5.3 1.3-3.2-2-3.2-2.4-2.9-1.5-1.9-2.9 0.1-3.9-4.3-16.3-5-5.6 0.2-1.9 0.7-1.3 0.2-2.3-0.2-2.3 0.3-2.4-0.3-2.3-0.9-1.9 0-2.2 0.9-1.7 1.1-1.3 0.8-2.1-0.2-2.4 0.1-0.3 2.4 0.5 2.1 0.7 1.2 0 2.3-0.6 1 0.2 2.3 2 1 0 2-0.6 2 0.6 1.3 0.1 0.6-0.5 4-0.2 0.8-0.6 1.9-1.9 0.7-0.4 1.6-0.5 0.7 0.1 0.3 0.2 1.2 1.6 0.5-0.3 1 0 0.5-0.1 1.4-1.3 0.6-0.1 1.5-1.9 1.2-0.4 3.6-0.8 0.9-0.5 0.8-0.8 1-0.3 5.9-0.1 4.2-0.9 1.4-1.1-1.5 8.4-0.1 3.5 0.4 6.3 1 2.6z" id="TUR2292" name="Giresun">
 </path>
 <path d="M650.1 80.5l-0.1 0.3 0.2 2.4-0.8 2.1-1.1 1.3-0.9 1.7 0 2.2 0.9 1.9 0.3 2.3-0.3 2.4 0.2 2.3-0.2 2.3-0.7 1.3-0.2 1.9 5 5.6-1.5 1.3-1.8 0.8-2.4 0.3-2.1 0.5-0.6 0.8-0.1 2 0.5 0.8-0.2 1.2-1.1 0.7-4.3-0.2-1.9 1.4-1.6 2.1-1.5 1.2-1.8 0.2-4-3.2-2.9-5.6-0.9-4.2-1.7-3.3-7.1-0.4-11.9-8.4-3.5-0.3-3.6 0.5-3.7-0.3-3.5-1.4-2.6-1.7-4.4-1.5-2.9-1.8-2.3-0.5-0.7-0.5-0.6-2 0.9-1.9 1.1-0.3 1.1-0.5 2.2-0.2 2.1-0.7 1.9-1.1 0.8-0.6 2-2.3 4.2-2.3 2.2-4.3 2.9-3.2 2.8-3.7 0-0.4 5.8-0.1 1.9 0.5 1.2 1.2 0.6 0.3 1.1 0.3 1.2 0.2 0.9 0.2 1.3 1.5 0.9 0.7 2.1 0.7 0.2 0.3 1.2 1.4 1.1 0.4 2-0.3 0.9 0.3 0.3-0.4 0.7-0.3 0.4-0.2 0.4-0.6 0.7-1.8 0.6-1.2 0.8-1.1 0.8-0.9 1-0.7 0.4 1.2 0.9 0.6 1 0 0.9-0.8 0.3 0.5 1.4-0.2 0 4.3 1 1.2 2.6 1.3 0.8 0.6 0.5 0.7 0.9 1.6 2-0.9 2.5 0.3 6.3 2.1 0.6 0.1z" id="TUR2293" name="Ordu">
 </path>
 <path d="M513.8 33l-2 4.8-0.3 3.5 0.9 3.3 0.1 2.1-0.2 2 0.3 1.6 0.7 1.4 0.3 2.1 0.5 4.1-1.1 0.8-2.6-0.7-1.1 0.5-1.6 1.1-2.2 0.4-2.3-0.3-1.6-0.9-0.9-1-0.5-0.2-2.3-0.3-0.5-0.4 0.6-0.8-1.8-0.9-0.8-0.6-0.3-0.6-0.1-1.3-0.3-1.2-0.5-1-0.5-0.6-0.6 1-1.4 0.8-2.7 1.1-1.7 1.6-0.6 0.3-1.4 0.1-0.5 0.2-0.5 0.6 0.4 1.3-0.8 0.8-1.2 0.6-0.8 0.6-0.1 0.5-0.1 1.2-0.4 0.9-0.9 0.8-1.1 1.4-6-1.9-0.9-0.6-0.5-1-1.3-1-1.6-0.4-1.7 0.4-1.8-0.3-0.8-1-1.2-0.2-1.9 0.1-1.4-1.7 0.4-9.1-0.5-1.4-0.4-1.3 0.5-2.7 1-2.3 1.6-1.5 1.7-1.2 1.8-4.7-2.9-3.9-3.5-1-6.3-0.3-3.2-0.9-2.2-0.2-1.9 0-3.4-1.3 0.1-2.3 2.6-3.2 1.5-4.1-0.2-4 6 0.9 5.9-1.7 2-0.2 0.8 0.2 1.5 0.8 1.8 0.6 6.9 0.4 2.7-0.3 2.7-0.8 0.9-0.5 2-1.6 1.9-1.1 1.5-2 1.2-2.3 0.3-2.1 0.8 0.3 1.5 0.2 0.6 0.5 0.1-0.5 1-0.1 0.4 0.9 0.9 1.1-0.2 0.5 0 0.4 1.9 1.6 1.2 0.5 1.5-0.1 0.6-0.4 0.8-0.9 0.6-0.2 0.7 0.2 0.6 0.3 1 1 0 0.5-2.8-0.4-1.3 0.2-1.1 0.9-0.5 1-0.4 1.6-0.3 1.6-0.1 1.3 0.4 1.1 1.4 2.6 1.6 2.1 2.8 2.4 0 0.5-0.7 0 0.3 0.9 0.5 1.1 0.7 0.9 1.5 0.8 1.5 1.9 0.8 0.6 3.1 1.3 2.3 0.4 0.8 0.5 1.7 1.6 1.9 1.1 0.7 0.2z" id="TUR2294" name="Sinop">
 </path>
 <path d="M683.8 142.5l-0.1 3.5-1.1 2.6-2.4 0-2.4-0.4-2.7 0.6-2.5 1.8-2.5-0.4-2.4-1.9-2.4 1.3-1.9 5.7 0.4 2.1 3.6-0.1 3.8-0.9 1.1 1.3-0.5 1.8-1.1 0.3-1-0.1-2 1.1-1.3 2.2-2.5 3.5-0.6 7-1.2 2.4 0.6 2.5 1.8 1.8 1.7 1.1 1.2 1.7-0.4 1-1.9 1.2-1.5 1.7-0.6 0.1 0.3 0.8 0 1.1 0.1 2.3 0.6 1.9 0.3 2.1-0.2 1.1-0.1 1.3 0.6 2.2-0.4 2.2-1.2 1.8-4.1 1.4-3.7 2.9-3.4 1-3.5-0.5-1.9 0.3-1.7 0.8-4.1 0.1-1.9 0.9-1.9 1.3-2 0.8-1.8 1.3-4.4 0.9-4.4-2.2-2.3 0.6-1.1 2.6 0.5 3.2 0.9 3 0.6 1.4 0.3 1.5-0.8 2.5-3.7 4-2.3 1.5-1.1 0.4-2.7 3.1-2.6 2.5-3.1 1.4-11.7 1-1.3-0.6-1.3-0.9-6.8-0.9-6.9 1.7 0.2-2.8 1.2-2.2 0.4-1 0.2-1.1 2.1-6.1 1.4-5.3 1-2.5 1.2-2.5 2.2-6.3-1.9-6-4.2-2.2-4.4-0.9-4.9 0-4.7 1.6-2.6-0.9-2.6-2-8.6-1.2-4 1.4-5.1-0.7-5-3.6-1.7-0.3-1.7-0.7-0.4-0.5-0.7-1.4-0.4-0.7-2.6-1.3-2.7-0.2 1.9-2.3 2.4-1.8 1.7-2.2 1.2-2.5 1.6-2.5 1.8-2.2 4.5-3.5 3.8-3.8 1.6-5.6-0.2-1.6-0.5-1.4-1.8-1-2.5-4.5-1.5-5 12.2-2.5 8.6-0.4 7.7-3 1.6-1.7 1.1-2.6 1-4.1 1.4-4 1.9-1.1 2-0.6 6 0.8 1.9-0.8 6.8-1.8 4.8-0.7 4.4 0.3 4.4-0.7 1.9-1 1.8-1.5 0.7-0.2 0.8 0 2-0.5 1.8-0.8 3.2-4.4 2.6-5.4 2.9 5.6 4 3.2 1.8-0.2 1.5-1.2 1.6-2.1 1.9-1.4 4.3 0.2 1.1-0.7 0.2-1.2-0.5-0.8 0.1-2 0.6-0.8 2.1-0.5 2.4-0.3 1.8-0.8 1.5-1.3 4.3 16.3-0.1 3.9 1.9 2.9 2.9 1.5 3.2 2.4 3.2 2 5.3-1.3 5.5 1.7 5.2 2.6z" id="TUR2295" name="Sivas">
 </path>
 <path d="M599.9 67.5l0 0.4-2.8 3.7-2.9 3.2-2.2 4.3-4.2 2.3-2 2.3-0.8 0.6-1.9 1.1-2.1 0.7-2.2 0.2-1.1 0.5-1.1 0.3-0.9-1.6-1.8-1.3-2.7-0.1-0.4-0.2-0.3 0.5-1.8 0.8-5.7 1.4-5.6-4.1-0.9-1.4-0.6-1.6-1.5-1.6-1.9-0.7-2 1.3-1 3.1-1.6 2.9-2.3 1.5-1.9 1.7-2.2 0.5-4.1-2-6.9-0.1-2-0.4-3.9 0.3-1.8-0.5-1.8-3.1-7.5-5.8-1.7-1-3.2 0.6-16.2-4.6-2-0.5-4 0.5-0.8-2.6-0.3-2.7-0.7-2.5-2.7-4.9 0.8-0.6 1.2-0.6 0.8-0.8-0.4-1.3 0.5-0.6 0.5-0.2 1.4-0.1 0.6-0.3 1.7-1.6 2.7-1.1 1.4-0.8 0.6-1 0.5 0.6 0.5 1 0.3 1.2 0.1 1.3 0.3 0.6 0.8 0.6 1.8 0.9-0.6 0.8 0.5 0.4 2.3 0.3 0.5 0.2 0.9 1 1.6 0.9 2.3 0.3 2.2-0.4 1.6-1.1 1.1-0.5 2.6 0.7 1.1-0.8-0.5-4.1-0.3-2.1-0.7-1.4-0.3-1.6 0.2-2-0.1-2.1-0.9-3.3 0.3-3.5 2-4.8 1.6 0.6 2.4 0.3 2.3-0.2 1.1-0.5 1.9-1.2 3.2-0.6 5.6-2.3 1.2-0.2 1.2-0.5 2.2-1.7 1.1-0.3 0 0.5-0.5 0.9-0.4 0.3-0.5 0.2 0.1 1.1-1 2.2 0.2 1.1 0.3 0 0.2-1.7 0.5-1.5 0.7-1.2 0.7-0.9 0.8-0.5 3.2 2.9 0-0.9 0.3 0 4 5.1 0.7 2 0 2.9-0.2 0.7-0.5 1.4-0.1 2.3 0.2 1.1 0.6 1.2 2.3 2.9 1.3 0.9 1.7 3.4 0.9 0.7 2.6 1.4 1.5 0.3 0.3 0.4 0.3 2 0.4 0.4 1.2 0.4 1.1 1.5 0.5 0.2 1 0.1 0.4 0.4 1 0.4 1.3-0.3 2.2-1.3 2.7-2.4 0.5-0.7 0.1-0.6 1.1-1.9 0.3-1.5 0.6-0.7 0.7 0.1 0.9 0.3 1.1 0.2 4.5 0 4.1 1.1 7.7 3.9 1.6 1.4 0.9 2.2 0.1 3.1 0.3 1.2 0.8 0.5 1.1 0.2 2 1.2 1.1 0.5 0.8 0z" id="TUR2296" name="Samsun">
 </path>
 <path d="M576.6 87.1l-0.9 1.9 0.6 2 0.7 0.5 2.3 0.5 2.9 1.8 4.4 1.5 2.6 1.7 3.5 1.4 3.7 0.3 3.6-0.5 3.5 0.3 11.9 8.4 7.1 0.4 1.7 3.3 0.9 4.2-2.6 5.4-3.2 4.4-1.8 0.8-2 0.5-0.8 0-0.7 0.2-1.8 1.5-1.9 1-4.4 0.7-4.4-0.3-4.8 0.7-6.8 1.8-1.9 0.8-6-0.8-2 0.6-1.9 1.1-1.4 4-1 4.1-1.1 2.6-1.6 1.7-7.7 3-8.6 0.4-12.2 2.5-0.6-1.5-1-0.9-1-2 0.1-2.6 0.4-3.8-2.2-2.2-2.2 0.6-2.2 1-2.4 0.5-2.4 0.2-4.1-0.8-4.9 0.4-4.1-2.9-3.6-4.1 2.1-4.4 1.5-1.6 2.8-1.2 1-0.3 1.8-0.8 1.6-1.8 1.3-2 1.6-2.7 2.3-5.2 1.4-1.7 4.3-0.3 4.2 1.1 1.3 1.1 1.5 0.8 1.1 0.3 1 0.5 0.9 0.7 1 0.1 3.2-1.6 4.3-2.8 0.7-0.7 0.8-0.5 0.4-3.5 4.2-0.9 2.3-3.3 0-2.5 0.9-2.3 1.8-2.7-1-2.7-0.9-0.4-0.8-0.6-1.1-1-0.6-1.2 0.7-0.9 0-0.5-0.4 0 0-0.5 1.5-0.8 5.7-1.4 1.8-0.8 0.3-0.5 0.4 0.2 2.7 0.1 1.8 1.3 0.9 1.6z" id="TUR2297" name="Tokat">
 </path>
 <path d="M876.2 47.7l0.7 4 0.4 3 0.6 1.7 0.4 0.7 1 2.5 1.5 4.8-1.4 4.7-4.4 2.2-4.5 5-3.3 6.5-3 0.3-3.1 0.7-3.6-0.4-3.6 0.3-1.8 1-1.6 1.4-0.6 2.7 0.3 3-1.3 2.8-2.1 2.1-1 2.7-0.1 3.1-2.4 3.6-4.5-2.5-4-1.2-4.1 1.2-4.4 2.9-4.8 1.8-3.6-3.1 0.7-5.9 1.4-2.5-0.4-2.2-1.9-0.7-6.5-1-4-2.3 0.7-2.8 5-5.8 1.2-0.6 1-1 0.5-1.5 0.8-1.4 2.8-1.8 1.4-3.3-1.5-1.7-2.1-1-0.5-1.2-0.6-1.2-1.1-0.7-1-0.9-1-2.4-0.4-2.7-1.5-3.8 4.5-3.7 1.3-0.5 1.1-0.6 0.6-0.2 1.8-0.2 0.7-0.3 1-0.7 0.7-1.3 0.6-1.4 0.2-1.6 0.5-0.3 3.1-2.8 0.7-1.3 5.5 2.4 0.7 0.1 1.6-0.1 1.3-0.6 0.4 0.3 0 1.1 0.2 0.4 0.6 0.2 1.5 0.2 0.7 0.3 2.1 1.9 0.6 0.3 0.5-0.3 2.1-1.8 1.6-2.4 0.8-0.5 2.1-0.9 3.7 1.5 1.8-0.6 0.8-0.4 0.7-0.1 0.7 0.1 0.8 0.4 1.6-0.5 0.8 0 0.8 0.5 0.8 0.8 1.3 0.1 2.5-0.1 9.2 3.5 0.7 0z" id="TUR2298" name="Artvin">
 </path>
 <path d="M880.7 105.3l-0.4 2.4-0.8 2.3 1.2 6.9-2 1.3-2.2 0.9-1.8 1.2-1.7 1.4-3.3 1.9-7.6 2.6-1.6 3.7 1.8 2.2 1.1 1.8 1.3 1.4 4.5 0.8 1.7 0.6 1.5 1.1 0.9 1.2 0.7 1.4 0.8 0.7 1.1 0.3 2 0.9 1.4 2.1 1.2 2.7 1.6 2.5-1.5 1.6-1.7 1-1.4 0-0.7 0.1-1.2 0.6-1.1 1.6-1.9 0.6-3.9-0.7-1.9 0.8 4.3 5.2 7.4 3-0.7 0.5-0.6 1.8 0.1 9.2-0.5 3.2-1.6 2.7-1.1 0.4-2 0.3-1.9 0.1-7.2 3.6-1 3 0.3 3.1-1.5 2.5-3.6 2.2-1 1.2-1.6 1.5-6.4 1.1-2.1 1.2-2.1 1.6-4.5-0.2-4.4-1.8-1.3-1.1-3-4.3-5.1-5-1.9-1.3-4.2-1-8.4 1.4-2.2-3.9-2.3-2.7-3.2-0.4-3.8-1.8-5.1-4.8-1.6-0.9-1.5 0.8-1.5 1.1-4.7 2-4.6-0.7 0.1-4.1 1.9-3.6 1.2-2.8-1.7-1.9-2.2-1-2-1.4-1-1.2-0.7-1.4-0.2-1.9 0.1-1.9-3.5-4.6-8.9-0.2-2.8-1.4 0.5-3.9 1.6-3.6 8.5 1 1.9-0.3 2.3-1.8 2.2-2.2 2.9-1.4 6.5-2.3 1.5-1.8 1.2-2.5-0.1-1.4-3.5-0.3-1.5-0.6-3.4-0.8-3.2-1.8-1.3-4.2-1.5-9.3-1.7-4.2 8.5-4.3 2-0.5 2.2-0.3 3.1-0.9 1.6-3.9 1.8-0.8 2.3 0 2.2-0.8 5.6-4.8 4-2.3 4 2.3 6.5 1 1.9 0.7 0.4 2.2-1.4 2.5-0.7 5.9 3.6 3.1 4.8-1.8 4.4-2.9 4.1-1.2 4 1.2 4.5 2.5 2.4-3.6 0.1-3.1 1-2.7 2.1-2.1 1.3-2.8-0.3-3 0.6-2.7 1.6-1.4 1.8-1 3.6-0.3 3.6 0.4 3.1-0.7 3-0.3 1.1 5.3 2.7 4.1 1.9 1.3 1.5 1.9 1.1 2.7 1.5 2.3 2.1 2.1 1.6 2.8z" id="TUR2299" name="Erzurum">
 </path>
 <path d="M763.1 143.1l-1.6 3.6-0.5 3.9 2.8 1.4 8.9 0.2 3.5 4.6-0.1 1.9 0.2 1.9 0.7 1.4 1 1.2 2 1.4 2.2 1 1.7 1.9-1.2 2.8-1.9 3.6-0.1 4.1-3.4-1.1-4.2-0.1-4.3-0.7-7.7-0.2-1-0.6-2-0.7-0.6-0.1-0.1 0.2-1.7 0.6-2 0.9-1.1 0.2-4.8 1.6-4.1-1-2.8-1.6-1.9 0.6-2.4 3-3.6 1.2-8 1.2-4.1 0-4-0.9-4-0.3-2.1 1.1-2.2 0.6-2.7-0.5-2.7 0.5-5.2 2-1.4 1.1-1 1.8-1.3 0.7-1.5-0.1-0.7 1.1-0.6 1.2-0.6 0.3-3.1 1.1-0.9 2.2 0.7 2 0.7 1.3-1.4 0.9-1.4 0.3-1.2 0.7-0.8 3.8-1.8 1-0.2 1.6 0.2 1.6 0.9 0.7 0.4 4.2-1.6 0.3-1.4 0.7-3.4-4-2.2-1.3-2.3-0.9-5-0.3-4.1-2.1 1.2-1.8 0.4-2.2-0.6-2.2 0.1-1.3 0.2-1.1-0.3-2.1-0.6-1.9-0.1-2.3 0-1.1-0.3-0.8 0.6-0.1 1.5-1.7 1.9-1.2 0.4-1-1.2-1.7-1.7-1.1-1.8-1.8-0.6-2.5 1.2-2.4 0.6-7 2.5-3.5 1.3-2.2 2-1.1 1 0.1 1.1-0.3 0.5-1.8-1.1-1.3-3.8 0.9-3.6 0.1-0.4-2.1 1.9-5.7 2.4-1.3 2.4 1.9 2.5 0.4 2.5-1.8 2.7-0.6 2.4 0.4 2.4 0 1.1-2.6 0.1-3.5 2.3 0.2 4.6-0.3 2.1-1 1.4 0.9 1.5 0.7 1.6 0.2 1.6 0.4 5.6 3.4 2 0.8 1.9 1.2 0.8 1.1 1 0.9 3.1 1 3.1 1.6 3.2 0.3 3-0.3 3.1 0.2 3-0.3 2.8-1.4 5.8-1.4 2.3-2.4 2-3 2.8-1 3 0.2 2.6-0.3 2.1-1.9 2.4-1 8.6 1.8z" id="TUR2300" name="Erzincan">
 </path>
 <path d="M807.2 90.6l-4 2.3-5.6 4.8-2.2 0.8-2.3 0-1.8 0.8-1.6 3.9-3.1 0.9-2.2 0.3-2 0.5-8.5 4.3-0.7-4.4 0.6-4.6-3.3-8.4-0.6-4.8-1.3-4.6-1.8-4.3 5.8-3.9 1.9 0.8 1.5 0.1 1.5-0.4 1.6-1 1.9-1.7 0.7-0.2 1.7-0.2 0.8-0.3 0.6-0.4 3.1-4.2 3.6-2.8 0.6-0.2 0.8 0.1 2.3 0.9 1.3-0.3 1.9-1.3 0.9-0.4 1.1-0.1 1.2-0.5 1.2-0.6 0.9-0.7 2.1-2.2 1.1-0.7 1.3-0.4 1.3 0 1-0.4 0.4-0.3 1.5 3.8 0.4 2.7 1 2.4 1 0.9 1.1 0.7 0.6 1.2 0.5 1.2 2.1 1 1.5 1.7-1.4 3.3-2.8 1.8-0.8 1.4-0.5 1.5-1 1-1.2 0.6-5 5.8-0.7 2.8z" id="TUR2301" name="Rize">
 </path>
 <path d="M766.8 78.1l1.8 4.3 1.3 4.6 0.6 4.8 3.3 8.4-0.6 4.6 0.7 4.4-1 0.2-2.1 0.7-5.4-0.1-2.6 0.5-2.5 0.8-2.3 0.1-4.3-1.4-4.5-0.1-2.1-1.3-3.2-3.6-1.6-0.6-1 0.9 0.3 1.6-0.8 1-1.1 0-2.5-4.2-3.5-2.4-1.7 1.2-0.6 2.8-0.8 0.9-1 0.3-3.2-0.4-12.1-5-3.5-3.6-0.8-4.1-2.2-1.2-0.9 1.2-1 0.9-1.1-0.1-1-0.8-1-2.6-0.4-6.3 0.1-3.5 1.5-8.4 0.4-0.3 0.6-0.2 1.8 0.2 0.9 0.3 1.6 1.4 1.2 0.2 0.9-0.3 1.4-1 1.1-0.2 0.6-0.2 2.8-1.6 0.8-0.9 0.6-0.1 3.3 0.8 0.7 0.7 1.3 1.8 3.1 2.7 2 1.2 2.1 0.4 1-0.4 1.1-0.5 1-0.1 1.4 1 0.6 0 1.2 0 0.4 0.1 3.1 2.5 1 0.5 1 0.2 0.8-0.7 3.3-1.1 1.3-0.1 3 2.8 1.5 1 2.1 0.4 0.8-0.1 1.6-0.7 1.2-0.3 1.9-0.7 1.2-0.8 2.4-0.7 2.7-1.7z" id="TUR2302" name="Trabzon">
 </path>
 <path d="M921.4 148.4l1.2 3.8-0.3 3.3 0 1.6 0.7 2.5 0.9 0.8 1.8 0.7 3.3-2.4 3.5-1.4 1.7 0.3 0.7 0.6 1.7 0.8 1.1 0 1.7 1.2 1.1 2.5 1.6 2.1 4.7 2.2 3.3 0.8 0.3 0.9 0.3 1.1 4.8 0.7 5.2-0.6 3.9 1.2 4 0.5 9.3-2.2 2.1 0.5 0.8 0.7-0.3 1.1-1.7 3.5-0.3 0.9-0.1 1.1 0.3 1.9 0 0.8-0.6 0.8-0.2 1.5 0.2 1.3-0.1 1.2-0.8 1.3-1 0.8-2.7 1.2-1.2 0.3-1.3-0.1-3.6-1.8-1.3-0.2-2.8 0.8-1.2 0.1-1.2-0.1-0.8 0-0.8 0.3-1 0.6-0.6 0.9 0.3 0.8 1.4 1.6-7.4 2-1.9-0.4-0.9-0.3-3.1-0.3-2.5-0.9-2-0.3-2 0.3-1.5 1.1-1.3 1.4-1.8-0.1-4.5-0.8-2.4-1.5-3-3.2-3.6-1.6-4-0.3-2.3 1.8-1.9 2.5-1.8 0.6-3.1 0.6-1.2 0.5-0.4 2 1.9 1.2 2.1 0.8 0.3 2.1-0.3 2.3-0.1 2.4-1.3 1.4-6.1 2.4-9.6 2.2-1.7 1.4-1.9 1.1-2.4 0.8-2.3 1.4-0.2-3.5 0.4-3.3 0.6-2.6-0.1-1-0.3-1 0.3-4.3-1.9-2.8-1.3-1.2-0.9-1.9-1.6-1.9-1.6-1.5-2.2-3.7-1.4-4.3 1.6-2.7 0.5-3.2-0.1-9.2 0.6-1.8 0.7-0.5-7.4-3-4.3-5.2 1.9-0.8 3.9 0.7 1.9-0.6 1.1-1.6 1.2-0.6 0.7-0.1 1.4 0 1.7-1 1.5-1.6 10 2 16.1-4.6 5.6 0.1 2.4 0.6 2.4-0.5 2.8 1.2z" id="TUR2307" name="Agri">
 </path>
 <path d="M811.2 189.3l-1.4 2.6-0.3 1.5 0.8 2 0.3 0.6 0.5 1.3 0 1-0.1 2.1 1.2 2.1 1 1 1.4 2.6 0.4 3-0.7 2.7-3.6 4.5-1.6 5.2 1.1 3.8 1.1 1.6 0.6 0.2 1.2 1 0.6 1.6 0.4 1.7-2.6 1.8-6.3 2.5-6.5 4-3.4 1-8.9-0.4-2.6-0.7-1.8-0.2-5.1 0.8-2.9 1.5-0.3 1.8-0.1 2-1.3 2.2-2.1 1-6.1 0.2-0.2-3.1-0.5-2.9-2.8-4.2 2.4-7.1 1.6 0.3 1.7 0.6 1-1.8 0.7-2.6 0.3-2.4-0.9-2.2-3.2-3.9-1.2-5.2 1-4.7 2.6-3.7 2.2-4.3-1.6-3.2-4.3 1.9-1.8 0.6-11.9 6.4 0.9-2.1 0.4-2.2-1.1-5.1 0.3-1.8 0.6-1.7 0.3-3.3 0.7-1.4 2.6-0.8 3.7 0.2 0.7-0.3 0.5-1.1 0.4-1.3 2.4-1 2.5 0.1 2.5-1.8 1.4-3 0.9-0.7 2.4 0.4 1.4 0.1 2.6-1.2 2-2.5 3.4 1.1 4.6 0.7 4.7-2 1.5-1.1 1.5-0.8 1.6 0.9 5.1 4.8 3.8 1.8 3.2 0.4 2.3 2.7 2.2 3.9z" id="TUR2308" name="Bingöl">
 </path>
 <path d="M822.5 245.1l0.3 2.3-2 1.1-1.7 0.2-1.7 0.5-2.7 1.3-1.2 1.7-0.4 2.4-1.1 3.6-0.6 3.9 0.7 7.2-0.4 3.7-0.8 1.6-1 1.4-2.4 8-2.1 2.4-2.5 1.8-0.5 1.6 0.5 1.9 0.4 2.5 1.2 2-3.4 1.5-18.2-0.4-5.7 1.2-0.7 1.5-2.4 3.3-4.2 0.3-5.8 4.5-2.6 1-5.7 4-2.3 2.1-5.1 6.6-2.4-2.7-1.8-3.4-1.8-5.3-0.2-1-0.5-1.9-0.8-5 0.4-7.1-0.8-1.6-0.9-0.3-1-0.5-1.3-1.3-1.5-0.6-1 1.6-2.5-1.1-2-1.8-1.7-0.6-1.6-0.8-3.4-2.9-3.2-3.3-2.9-1.4-3.1-0.1-4.2-0.7-4.1-2.2 1.9-1.4 0.5-0.8-0.5-0.9 1.2-2.7 0.4-1.5-0.2-1.8-1.6-1.7-4.2 1.8-1.3-0.9 1.7-6.1-0.2-1.6-0.6-1.4-0.9-1 7.1-1.2 4.3 1.1 4.5 0.4 2.2-1 4-0.6 1.5-0.8 3.9-0.4 4 0.3 1.8-0.6 1.6-1.1 1.3-2 1.1-2.2 0.8-2.1 2.4-0.5 1.2 0.6 1.8 1.4 0.8 0.4 17.5-0.6 6.1-0.2 2.1-1 1.3-2.2 0.1-2 0.3-1.8 2.9-1.5 5.1-0.8 1.8 0.2 2.6 0.7 8.9 0.4 3.4-1 6.5-4 6.3-2.5 2.6-1.8 2.7 3.5 3.5 2.6 0.5 2.6-0.6 2.7 0.7 1.8 1.6 0.5z" id="TUR2309" name="Diyarbakir">
 </path>
 <path d="M885.4 213.8l-3.8 3.1-4.3 1.6-8.5-0.9-1.8 0.6-1.7 1.2-2.1 0.9-2.2 0.2-1.1 0.8-0.6 3.1-1.1 1-4.6-0.2-1 2.5 1.7 2.6 0.3 2.9-2.2 1.8-3 3.5-3.7 2.1-8.9-0.7-8 3-0.6 0.9-2.9 0.4-2.8 0.9-1.6-0.5-0.7-1.8 0.6-2.7-0.5-2.6-3.5-2.6-2.7-3.5-0.4-1.7-0.6-1.6-1.2-1-0.6-0.2-1.1-1.6-1.1-3.8 1.6-5.2 3.6-4.5 0.7-2.7-0.4-3-1.4-2.6-1-1-1.2-2.1 0.1-2.1 0-1-0.5-1.3-0.3-0.6-0.8-2 0.3-1.5 1.4-2.6 8.4-1.4 4.2 1 1.9 1.3 5.1 5 3 4.3 1.3 1.1 4.4 1.8 4.5 0.2 2.1-1.6 2.1-1.2 6.4-1.1 1.6-1.5 1-1.2 3.6-2.2 1.5-2.5-0.3-3.1 1-3 7.2-3.6 1.9-0.1 2-0.3 1.1-0.4 1.4 4.3 2.2 3.7 1.6 1.5 1.6 1.9 0.9 1.9 1.3 1.2 1.9 2.8-0.3 4.3 0.3 1 0.1 1-0.6 2.6-0.4 3.3 0.2 3.5z" id="TUR2310" name="Mus">
 </path>
 <path d="M893.7 268.6l-1.5 4.4-0.6 0.8-0.6 0.9 0 2 0.3 2.1-0.2 3-1.6 2.4-2 0.1-3.5-2.5-5.3-3-3.2-2.4-2.4-1-3.6-0.9-3.8-1.6-3.3-2.6-3.1-3.1-3.5-1.6-4.5 1.7-4.5 1.2-5.6-0.5-5.4-2-0.1-1.5 0.2-1.5 0-2.5-0.2-2.4-1.2-3.6-1.8-9-4.5-1.7 0.6-0.9 8-3 8.9 0.7 3.7-2.1 3-3.5 2.2-1.8-0.3-2.9-1.7-2.6 1-2.5 4.6 0.2 1.1-1 0.6-3.1 1.1-0.8 2.2-0.2 2.1-0.9 1.7-1.2 1.8-0.6 8.5 0.9 4.3-1.6 3.8-3.1 2.3-1.4 2.4-0.8 1.9-1.1 1.7-1.4 9.6-2.2 0.1 5.2 1.6 3.4 6.1 3.7 2.1 3.3-1.5 4.9-3.8 3-2.8 3-4.8 7.2-0.9 2-1.1 1.9-3.3 2.3-5.6 3.2-0.9 0.9-0.5 2.9 0.3 1.4 1.9 4.2 0.2 0.9 0.1 1.7-0.5 2.3 0.9 3.4 2.8 0.9z" id="TUR2311" name="Bitlis">
 </path>
 <path d="M414.5 123.1l-0.7 5.6-0.7 3.9 0 4.6 0.4 4.1-0.7 3.9-6 0.7-3.9 1.6-2.3 5.8-1.3 5.8-1.6 5.7 1.3 5.8 4.2 5 1.4 2.6 2.1 9.7 4.1 8.1 1.1 3.8 5.9 3.7 2.6 2.2 0.9 0.3 0.7 0.6 0.9 1.3 1 0.8 2.8 0.2 1.7 0.8 0.7 0.7 3.2 1.2-0.3 2.3-1.8 4.4 2.1 5.7-0.2 3.9-4.3 4.1-2 1-4.7-0.1-4.5 1.2-4.3 2.5-4.5 1.2-1.1-2.7-1.7-2.4-1.3-2.5-1.1-2.8-0.2-3.8 0.6-3.9 0.3-3.7-0.3-3.6-2.8-6.5-5.1-3.7-3-1-0.9-0.5-2.3-1.7-2.2 0-1 1.4-0.5 1.7-0.5 3.5-0.7 1.3-2.3-0.4-3-2.3-2.5-0.8-5.3 4.4-1.9 2.5-2.4 1.4-3.9-1.7-3.3 1.6-3.1 2.5-2.2-0.2-1.9-1.8-1.7-0.9-4.4-1.5-2.7 0.3-5.4 1.6-1.9-0.6-7.5-6.2-2.2-1.4-2.3-1 1.3-0.9 2.7-1.3 1-1.4 1.1-0.4 1.1-0.1 1.3-1.2 1-1.7-0.4-2-1.6-1.1-1.1-1.8-0.1-2.6-0.3-1.2 0.5-2.1 0.3-2 0-2.1-0.6-1.4-0.8-1.2-0.2-2.1-0.7-1.4-2.6-2.3-2.6-7.2-0.4-3.4 2.2-2.4-0.1-1.8-0.7-0.5-0.7-1.1-0.4-1-1.8-0.1-1.5-0.9-1.3-2-0.8-2.1-0.2-1.7-0.6-1.2 0-2-2.4 0.3-2.1-1.4-1.9 0.7-3.8 0-2 0.5-1.7-0.6-1.5 0.5-2.2-2.3-1.3 0.2-1.3 0.4-4.8-0.6-1.4 1.2-1.5 1.1-1.4-0.5-1.3-0.9-3-0.3-5 2.2-2.1 0.1-1.2-0.4-0.3-1.4-0.6-4.1-2.2-2.8 3.2-4.3 4.3-2.5 1.6-3.5-0.2-4.1 0.5-2.6 1.3-1.4 4.9 1.7 4.6 2.8 8.8-1 1.7 1.9 1.2 0.6 1.5 0.2 1.6 0.6 1.7 0.2 4.7-1.9 2-0.2 6.5 0.1 4.5-1 3.6-1.7 6.1-1.5 2.2-1.5 2.2-0.7 7.2 1.1 4.2-2.3 1.4-2.5 1.9-2.1 0.9-1.6-2-5.5 0.2-3.7 1.5-1.4 1.9-0.8 4.1-0.2 4.1 0.7 15.3 7.1 1.5 2.1 1.2 2.3 1.7 2 2 1.5 0.9 0.4 2.2 2 1.7 1 1.1 1.7 0.6 2.4 3.4 2.7 3.8-0.5 0.3-1.7 0.5-1.9 1-0.5 1 0.1 1.7 0.6 1.5 1 7.1 2.3z" id="TUR3008" name="Ankara">
 </path>
 <path d="M437 87.3l2.6 4.3-0.6 2.7-1.1 2.7 0.3 3 1.3 2.5 0.4 2.4-0.2 2.5 0.7 2.6 1.3 2.1 0.8 1.7 0.6 1.8 0.3 1.8-0.1 1.8-0.7 0.5-1.2 2.8-1.5 2.6-1 0.5-1 0.2-4.2 2.4-4.8-0.5-14.4-4.6-7.1-2.3-1.5-1-1.7-0.6-1-0.1-1 0.5-0.5 1.9-0.3 1.7-3.8 0.5-3.4-2.7-0.6-2.4-1.1-1.7-1.7-1-2.2-2-0.9-0.4-2-1.5-1.7-2-1.2-2.3-1.5-2.1-15.3-7.1-4.1-0.7-4.1 0.2 0.8-3.8 0.2-2 5.4-2.5 6.2-5 2.5-4.5 1.8-1.1 5.1 0.5 5.1-2.8 2.2-5.6 1.2 1.6 0.7 0.6 6.7 0.8 4.7 3.1 2 2.3 2.4 0.8 2-0.7 5.5-3.3 4-0.7 8.5-4.6 1.7-0.6 0.8 0.5 0.6 2.7-1.6 2.2-1.4 1.5-0.6 2.1 2 3.3 3 1.1 1.7 1.6 1.7 1.2 2.2 0.5 2.1 0.1z" id="TUR3009" name="Çankiri">
 </path>
 <path d="M346.3 54.7l-2.7 3.9-1.9 2.3-0.9 3.6-1.7 5.6 0 6.2-11.2-0.3-3.2-0.9-3.8-0.3-12.7-1.3-8.9-4.4-2-1.9 1.7-1.6 0.7-1 0.4-1 0.2-1.1 0.1-1.4 0.1-0.7 0.5-1.4 0.1-0.8-0.2-0.4-1-0.6-0.2-0.6 0.6-0.9 1.1-0.4 2.4-0.2 0.3-0.3 0.8-1.3 0.3-0.3 0.5-0.1 7.9-3.1 11.1-7.4 6.3-3.1 1.9-1.5 0.5-0.3 4.9-1.7 3 3 3.1 1.4 1.1 3.6 1.9 4.8-1.1 5.9z" id="TUR3010" name="Zinguldak">
 </path>
 <path d="M407.8 237.8l-1 1.9-3 3.4-1.2 2.2-0.7 5.3-1.9 2.8-1.2 3.5-0.3 2.5-0.8 2.3-0.4 5.4 1.9 5.1 0.7 0.5 0.5 0.7 0.4 2.8 0.8 2.5 3.5 4.3 2.2 2.1 2.2 0.1 6.2-1.4 8.2-0.6 4.1 0.2 4.1-1 4-1.6 3.9-0.9 3.9 0.6 0.7 3.4 1.8 2.7 2.5 1 2.4 1.3 2 2.9 1.8 3.2 2 2 1.7 2.3 0.6 3.8-1.2 3.4-1.2 1.4-0.8 1.7-0.3 3 0 1.9 2 2.9 1.3 1 1.9 2.2 1.2 2.8-0.6 2.1-1 0.7-2.7 0.9-1.6 0.9-2.3 2.2-3 1.5-4.5 1.6-1.4 0.8-1.8 2.2-1.3-2.6-3.5-5.9-7.3-7.9-5.9-6.5-1.1-4.2 0.1-1-0.3-3.2-2.2-0.8-5.1-0.2-2.4 1.5-1.5 2-2.6 3.4-5.3 2-8.1 0.5-7.8 1-4.9 2-8.9 9.9-6.3 8.6-4.9 6.5-1.3 4.3 0.3 2.3 3.2 1.5 3.1 0.2 0.8 1.8-0.2 1.9-1.6 2.5-7.4 7.4-5.9 4.4 0.4-4.4-0.8-4.3-1.1-1.6-1.7-0.4-2.4-0.2-2.2-0.8-0.8-1.8 0.6-2 1.3-1-0.2-2-1.7-1.1-2-0.8-3.5-3.3-1.5-1.1-1.5-1.4-2.3-3.3-2.6-2.8-3.7-2.5-3.3-3.2-4.4-2.8-13.4-2.8-5.2 0-2.2-0.9-2.1-1.7-1.2-1.3-1.1-1.4 1.4-3.7 0.5-3.9-0.7-2.4-1.3-2 0-2.3 2.2-0.7 1.7-2.1 0.3-3.1 2.1-3.5-0.1-5.1-1.2-5.2 1.1-4.3 1.7-1.1 3.7-1.4 3.3-2.1 0.4-2.2-3.8-3.3-1.2-1.8-1.8-0.7-3.6-3-3.1-4.2-4.1-3.3-1.5-4.9 9.2-6 4-4.2 4.5-6 0.2-1.5-0.2-1.3-0.1-1.4 0.8-3.5 1.6-3.2 4-6.6 0.4-2.7-0.9-0.6-1.6-1.6 0.5-1.7 0.7-4.5 3.1 0.4 4.1-0.7 0.8-1.1 0.3-1.9 0.2-2 2.3 1 2.2 1.4 7.5 6.2 1.9 0.6 5.4-1.6 2.7-0.3 4.4 1.5 1.7 0.9 1.9 1.8 2.2 0.2 3.1-2.5 3.3-1.6 3.9 1.7 2.4-1.4 1.9-2.5 5.3-4.4 2.5 0.8 3 2.3 2.3 0.4 0.7-1.3 0.5-3.5 0.5-1.7 1-1.4 2.2 0 2.3 1.7 0.9 0.5 3 1 5.1 3.7 2.8 6.5 0.3 3.6-0.3 3.7-0.6 3.9 0.2 3.8 1.1 2.8 1.3 2.5 1.7 2.4 1.1 2.7z" id="TUR3011" name="Konya">
 </path>
 <path d="M443.4 336.3l-3.7 1.4-3.9 0.3-1.9 0.8-5 3.9-3.8 0.7-1.9 1-1.3 0.2-1.8-0.6-4.3 0.4-4.2 1.6-6.6 0.6-2.1 0.6-1.9 1.2-1.7 1.5-1.7 1.3-2 0.6-1.7 2-0.6 2.9-1.1 1.9-1.9-0.5-0.5-1.2-0.7-0.4-1.5 0.6-2.4 1.5-0.8 0.3-2 0.4 0.1 2.1 1.1 1.3 0.9 1.5 0.5 1.9 0.7 1.7 1.3 0.6 1 1.3 1.1 0.9 2.8 0.7 2.4 1.8 1.2 2-1.3 1.7-2-0.8-1.9-1-0.8 0.2-0.7 0.3-0.7 2.1-0.7 2.4-1.2 1.2-1.7 0.3-3.2-0.2-3.1 0.8-2.9 1.3-3.2 0.1-3.4-0.9-3.4 0.4-1-2.1-2.1-1.1-1.7-1.2-1.4-1.8-2.2-4.4-1.8-4.7 5.9-4.4 7.4-7.4 1.6-2.5 0.2-1.9-0.8-1.8-3.1-0.2-3.2-1.5-0.3-2.3 1.3-4.3 4.9-6.5 6.3-8.6 8.9-9.9 4.9-2 7.8-1 8.1-0.5 5.3-2 2.6-3.4 1.5-2 2.4-1.5 5.1 0.2 2.2 0.8 0.3 3.2-0.1 1 1.1 4.2 5.9 6.5 7.3 7.9 3.5 5.9 1.3 2.6z" id="TUR3012" name="Karaman">
 </path>
 <path d="M221.3 233.6l-0.3 2.8-0.8 2.5-3.2 3.1-0.7 2.6-1 2.8-1.2 1.5 0.1 1.8-6.5 1.5-0.4 4 0.4 3.9-1.7 1.5-1.9 0.6-4 0.1-3.7-0.4-2.6 2 0 0.9-0.7 1.3-0.6 0.1-1.3-0.9-1.4 0.7-1.7 0.6-1.7-0.1-1.7-1.9-1.8-0.3-2.7 1.8-2.9 0-2.8-1.7-3.1-0.7-2-2.1-1.5-0.1-1.4-1 0.5-1 1.4-1.3 1.1-1.7 0.7-2 0.3-3.1-0.3-3.3-0.1-1.6-0.2-1.4-1.2-1.5-1.5-0.5-0.2-2.4 1.5-0.5 1.6-1.7 0.6-1.4 4-3.1 1.9-2 2.9-2.4 3 0 3.2 2 3.5 0.5 3.8-0.2 6.5-1.8 3-0.3 1.3-3.1 0.9-3.7 1.4-0.8 1.4-0.5 3.3 0 6.5 1.5 1.5 0.6 2.5 2.9 0 6.9z" id="TUR3014" name="Usak">
 </path>
 <path d="M646.2 317.2l-0.9 0.2-0.8-0.1-0.9 0-0.8 0.6-2.3 2.9-1.8 1.8-0.5 0.9-0.4 1.6-1.1 0.9-0.3 0.5-0.6 2.4 0.8 0.5 0.6 0.7 0.4 1 0 1.4-0.3 0-0.4-0.8-0.5-0.1-0.4 0.5-0.2 1.1 0.2 1 0.4 0.9 0.9 1.4 0.3 0.8 0.1 0.6-0.1 1.6-0.3 1.9 0 0.8 0.7 0.7 0.6-0.4 0.5 0.3 0.5 0.6 0.5 0.3 0.4-0.1 1.3-0.6 0.6-0.1 0.6 0.3-0.1 0.7-0.6 1.6 0 1 0.1 0.6 0.8 0.9 1.4 1.3 0.2 0.5 0 1.6 0.3 1.3 0.9 1 0.3 0.6-0.6 0.2-0.5 0.4-0.1 0.8 0.1 0.9 0.3 0.6-0.9 0.6-1.5 0.4-8.4 3.9-8.6 1.8-3.2 1.4-3.7 2.4-4.4-3.9-4.8-2.7-3.8-2.1-1.6 1.1-2.2-2.7-4.3-4.4-4-2.7-3.5-0.7-1.6-3.7-1.9-1-1.6 1.3-0.6 4.4-3.5 2.4-4.3 2-2.8 2.7-0.5-0.6-0.8-0.1-0.7-0.5-0.4-1.4-0.9-0.8-4.2-1.9-3.4-3.4 1.3-2.4 1.9-1.8 3.7-4.7 2.8-5.6 2-3.1 2.4-2.7 6.3-2.9 2.4-3.4 2.6 1.6 1.5 5.9 4 1.3 4.7-5 2.9-1.5 6.5-1.1 7-2.5 3.3-0.4 3.3 0.1 2.2-1.5 0.7-3-0.4-1.9 0.1-2 5.7-1.2 5.7 0.1 6.1 2.3 4.1 3.6z" id="TUR3016" name="Gaziantep">
 </path>
 <path d="M748.4 321.8l0.7 7.8 1.5 1.6 1.7 1.4 2.6 2.7 0.7 1.4-0.6 5.2 4.8 8.4 2.2 1.2-3.7 2.5-1.9 0.9-2 0.4-1.9 0.6-5.2 3.1-11.1 4.3-27.4 5.2-2.8 0.1-8.1-2.7-2.7 0.2-1.1 0.4-8.5 0.4-3.7-0.5-3.1-1.7-7.1-7.4-2.5-1.4-9.9-3-3.5-0.5-1.8 0.2-3.5 1.4-5 3.2-0.3-0.6-0.1-0.9 0.1-0.8 0.5-0.4 0.6-0.2-0.3-0.6-0.9-1-0.3-1.3 0-1.6-0.2-0.5-1.4-1.3-0.8-0.9-0.1-0.6 0-1 0.6-1.6 0.1-0.7-0.6-0.3-0.6 0.1-1.3 0.6-0.4 0.1-0.5-0.3-0.5-0.6-0.5-0.3-0.6 0.4-0.7-0.7 0-0.8 0.3-1.9 0.1-1.6-0.1-0.6-0.3-0.8-0.9-1.4-0.4-0.9-0.2-1 0.2-1.1 0.4-0.5 0.5 0.1 0.4 0.8 0.3 0 0-1.4-0.4-1-0.6-0.7-0.8-0.5 0.6-2.4 0.3-0.5 1.1-0.9 0.4-1.6 0.5-0.9 1.8-1.8 2.3-2.9 0.8-0.6 0.9 0 0.8 0.1 0.9-0.2 0.8 0.6 0.6 0 1.5-1.1 0.7 0.8 0.9 0.5 2.3 0.6 0.3 0.1 0 0.6 0.5 0.1 0.6-0.7 0.1-1.6 0.4-0.4 2.3 0.3 0.8-0.3 0.3-1.5 0.6 0 3-1.2 1.6 0.7 6.4-1.1 1.1-0.7 3.1-3.3 0.7-1.2 0.5-0.2 2.5-2.7 11.6-1.8-2.6-2-0.9-1 1-0.7 0.8 0.8 0.7 0.1 0.8-0.4 0.6-0.7 0.3-0.3 0.9 0.6 0.5 0 0.8-0.5-1.4-1.5-0.4-0.3 0.7-0.8 1-0.2 1.2-0.1 1-0.3-0.6-0.9 0.1-1.7-0.6-0.5-0.6 0.1-1.5 1-0.7 0.2 0.4-1 0.6-0.8 0.7-0.6 0.8-0.3 0.4 0.1 1.4 0.4 0.3-0.5 0.1-0.6-0.4-0.8 0.6-0.9 0.3-0.9 0-0.8-0.6-1 2.6-0.8 0.7-0.5 0.5-1 0.3-2.2 0.2-0.9 0.6-0.8 0.9-0.5 3.2-0.9 2-1.5 4.1 2.2 4.2 0.7 3.1 0.1 2.9 1.4 3.2 3.3 3.4 2.9 1.6 0.8 1.7 0.6 2 1.8 2.5 1.1 1-1.6 1.5 0.6 1.3 1.3 1 0.5 0.9 0.3 0.8 1.6-0.4 7.1 0.8 5 0.5 1.9 0.2 1 1.8 5.3 1.8 3.4 2.4 2.7z" id="TUR3017" name="Sanliurfa">
 </path>
 <path d="M566.2 259.2l-2.9 2.8-1.6 4.1-2.6 11.8-1.6 4.2-0.6 4.4-0.1 2 0.3 3.1 1.7 4.1-0.2 2.7-1.7 1.7-1 0.5-1.4 1.9-4 0-4.9 0.3-2.4 4.1-3 6.8-3.5 8.5 0 5.1 1.6 4.8 1.1-0.1 3.4 0.7 1.5 1.2 0.4 0.9 0.6 3.7-0.8 3.3-1.4 4-1.2-0.4-1.1-0.3-1 0.7-4.3 4.9 0 2.7 0.9 1.3-2.1 2.5-0.7 0.6-0.8 0.2-0.5 0.5-1.8 2-0.8 0.6-2 0.5-4.3 0.2-1.9 0.7-0.6 0.6-0.6 1.2-0.4 0-0.1-0.6-0.4-0.3-0.5 1-0.8 0.8-0.5 0.8 0.3 1 0.8-1.1 1.2 0.4 0.2-1.1 0.4 0.3 0.3 0.6 0.3-1-0.3-0.8 0.7-0.4 0.3 0.3 0.2 0.7 0.4 0.3 0.6-0.2 1-0.5 0.7 0.2-3.1 1.5-1.4 1.1-0.8 1.5 0.1 0.7 0.7-0.5 2.3-2.7 0.7-0.5 0.8-0.2-2 2-0.3 0.6-0.4 1.1-0.3 0.6-0.3 0.6 0 1.6-0.5 0.3-0.5 0.1-0.7 0.6-0.5 0.1-1.7 0.1-0.7-0.1-1.6-1.5-0.5-0.3-0.7 0.2-0.5 0.5-0.1 0.5 0.5 0.1 2.2 0.9-2.2-0.6-2.2-0.2-0.5 0.1-1.2 0.7-0.5 0.7-0.4 0.3-1.2 0.4-1.3 1.1-0.7 0-0.8-1.3-1.3-0.5-13.2-8-1.4-0.5-1.7-1.1-1-0.4-1.5-0.1 0-0.1 2.8-1.9 2.2-0.6 1.9-1.8 0.2-1.8-0.2-1.8-0.7-3.7 0-3.7 1.5-4.1-2-2-3.2 0.1-2.4-1.8-1.2-3.8-0.2-6.7-2.5-1.9-1.9-3.7-1.7-3.9-0.1-3.1 0.2-1.4 1.3-2.1 0.9-0.6 0.7-0.8 0.8-2.8-0.4-1.8-1.3-3.3-0.2-3.3 1.6-2.4 2.7 0.2 2.7 0.8 5.1-0.8 6.8-6.9 9 0.7 4.7 1.2 6.4 2.5 2.8-1.3-1.2-12.1 19.4-13.3 2.8-3.9 2.2-4.6 1.5-2 2.2-5.5 2.3-1.9 4-2.3 4.2-1.1 2.7 1.2 2 3.1 1.3 3.5 2.2 2.3z" id="TUR3018" name="Adana">
 </path>
 <path d="M433.7 128.2l0.6 3.2 2.2 4.9 1.3 1.3 1.2 0.2 1 1.1 0.2 1.5 0.7 2-0.2 2.2-1 1.7-1.4 2.8 0 3.5 0.5 1.3 0.3 1.5-0.2 1.4 0.5 1.4-8.3 8-2.4 7-3.6 5.7-8.4 6.8-5.9 10.3-4.1-8.1-2.1-9.7-1.4-2.6-4.2-5-1.3-5.8 1.6-5.7 1.3-5.8 2.3-5.8 3.9-1.6 6-0.7 0.7-3.9-0.4-4.1 0-4.6 0.7-3.9 0.7-5.6 14.4 4.6 4.8 0.5z" id="TUR3019" name="Kinkkale">
 </path>
 <path d="M483.3 255.4l3.7 10.2 3 3.2 8.5 0.1 1.4 4.5-0.5 2.8 0.2 2.8 1.1 2.3 0.5 2.4-2.4 1.5-0.2 3.4-0.9 4.1-6.8 6.9-5.1 0.8-2.7-0.8-2.7-0.2-1.6 2.4 0.2 3.3 1.3 3.3 0.4 1.8-0.8 2.8-0.7 0.8-0.9 0.6-1.3 2.1-0.2 1.4 0.1 3.1-3.7-0.9-3.6 1.6-1.6 1-1.8 0.6-3.9 0.1-1.2-2.8-1.9-2.2-1.3-1-2-2.9 0-1.9 0.3-3 0.8-1.7 1.2-1.4 1.2-3.4-0.6-3.8-1.7-2.3-2-2-1.8-3.2-2-2.9-2.4-1.3-2.5-1-1.8-2.7-0.7-3.4 17.2-25.7 3 0.5 4.4-1.4 3.1-0.1 1.4 0.8 2.2 2.2 2.7 0.7 5.4-2.1z" id="TUR3020" name="Nigde">
 </path>
 <path d="M447.9 218.9l-0.6 2.7 1.7 6-0.8 3.3-1.8 3.1 0.7 3.3 2.4 1.6 2.6 0.8 2.3-0.5 1.1 0.4 0.4 3-1.6 3.4 0.1 3.2 0.9 0.9 2.1 1.7 1.8 1.8 1.9 1.2-17.2 25.7-3.9-0.6-3.9 0.9-4 1.6-4.1 1-4.1-0.2-8.2 0.6-6.2 1.4-2.2-0.1-2.2-2.1-3.5-4.3-0.8-2.5-0.4-2.8-0.5-0.7-0.7-0.5-1.9-5.1 0.4-5.4 0.8-2.3 0.3-2.5 1.2-3.5 1.9-2.8 0.7-5.3 1.2-2.2 3-3.4 1-1.9 4.5-1.2 4.3-2.5 4.5-1.2 4.7 0.1 2-1 4.3-4.1 0.2-3.9-2.1-5.7 1.8-4.4 0.7 1 2.1 0.4 1.2-0.1 2 1 0.8 2.6 2 1.9 2.6-1.6 1.1-0.3 2.3 0.3 1.1-0.2z" id="TUR3021" name="Aksaray">
 </path>
 <path d="M514.3 133.4l3.6 4.1 4.1 2.9 4.9-0.4 4.1 0.8 2.4-0.2 2.4-0.5 2.2-1 2.2-0.6 2.2 2.2-0.4 3.8-0.1 2.6 1 2 1 0.9 0.6 1.5 1.5 5 2.5 4.5 1.8 1 0.5 1.4 0.2 1.6-1.6 5.6-3.8 3.8-4.5 3.5-1.8 2.2-1.6 2.5-1.2 2.5-1.7 2.2-2.4 1.8-1.9 2.3-4.4 6.1-16.9 11-2.3 0.8-5.9 3.8-11.8-1.9-0.7-1.7-0.8-1.6-0.4-1.4-0.2-1.6 0.4-1.6-1.1-2-4.2-2.6-0.7-2.7-1-2-1.7-0.9-1.3-1.6-0.5-1.3-0.2-1.5-0.4-0.8-1.5-0.7-0.9-0.2-1.3-3.2-2.3-1.9-2.6-0.5-2.3-1.5-7.2-8.9-0.6-1.4-0.5-1.5-1-1.5-4.1 0-2.4-0.8-2.6-3-2.7-2.6-2.9 0-1-1-1.1-1-0.5-1.4 0.2-1.4-0.3-1.5-0.5-1.3 3-1.4 8.2-1 4.9-2.3 5.1-1.7 8 1.5 3.1-1.2 2.1 0.2 4.2-0.3 7.8-3.8 4.4 1.3 2.4-0.3 4.1-2.4 1.4-1.9 0.1-1.3 0.6-1.5 0.2-1.2-0.7-0.8 0.5-3 5-0.4 2.1-0.8 0.5 0.2 0.4 1.4 1 0.7 2.3 0.2 2.7-0.2 2.6 0.8z" id="TUR3026" name="Yozgat">
 </path>
 <path d="M739.7 107.9l1.8 10.1-0.4 10.1-1.7 3.9-0.6 2.2-0.2 2.3 1.1 4.6 1.9 4.2-2 3-2.3 2.4-5.8 1.4-2.8 1.4-3 0.3-3.1-0.2-3 0.3-3.2-0.3-3.1-1.6-3.1-1-1-0.9-0.8-1.1-1.9-1.2-2-0.8-5.6-3.4-1.6-0.4-1.6-0.2-1.5-0.7-1.4-0.9 0.5-2.3-1.5-1.8-0.4-2.4 0.2-2.5-0.2-2.3 0-2.2 1.2-1.4 5.2-3 1.6-1.2 0.3-2.5-1.2-0.4-1.4-1.5-1.5-1.2-6.1-1.5-1.5-1.7-0.1-2.5 0.4-3.1 0.1-0.5 0.5-0.8 1.6-1.6 1-1.8-0.7-2.2 0.7-1.7 1.6-1.1 1.5-1.3 1.3-0.4 1-0.5 0.2-1 0.4-0.8 6.3-0.8 1 0.8 1.1 0.1 1-0.9 0.9-1.2 2.2 1.2 0.8 4.1 3.5 3.6 12.1 5 3.2 0.4 1-0.3 0.8-0.9 0.6-2.8 1.7-1.2 3.5 2.4 2.5 4.2z" id="TUR3031" name="Gümüshane">
 </path>
 <path d="M773.9 109.2l1.7 4.2 1.5 9.3 1.3 4.2 3.2 1.8 3.4 0.8 1.5 0.6 3.5 0.3 0.1 1.4-1.2 2.5-1.5 1.8-6.5 2.3-2.9 1.4-2.2 2.2-2.3 1.8-1.9 0.3-8.5-1-8.6-1.8-2.4 1-2.1 1.9-2.6 0.3-3-0.2-2.8 1-1.9-4.2-1.1-4.6 0.2-2.3 0.6-2.2 1.7-3.9 0.4-10.1-1.8-10.1 1.1 0 0.8-1-0.3-1.6 1-0.9 1.6 0.6 3.2 3.6 2.1 1.3 4.5 0.1 4.3 1.4 2.3-0.1 2.5-0.8 2.6-0.5 5.4 0.1 2.1-0.7 1-0.2z" id="TUR3032" name="Bayburt">
 </path>
 <path d="M939.5 138.8l-6.9 2.4-6.5 1-2.7 1.3 0 2.6-2 2.3-2.8-1.2-2.4 0.5-2.4-0.6-5.6-0.1-16.1 4.6-10-2-1.6-2.5-1.2-2.7-1.4-2.1-2-0.9-1.1-0.3-0.8-0.7-0.7-1.4-0.9-1.2-1.5-1.1-1.7-0.6-4.5-0.8-1.3-1.4-1.1-1.8-1.8-2.2 1.6-3.7 7.6-2.6 3.3-1.9 1.7-1.4 1.8-1.2 2.2-0.9 2-1.3-1.2-6.9 0.8-2.3 0.4-2.4 6-1.2 6.2-0.6 1-5 0.8-8.2 1.2-5.3 6.2-3.3 17-7.3 5.3-3 3.4-1.1-0.3 1.6 0.5 2.2 0.8 2 1 0.9 2.2 0.3 2.3 1.2 2 1.7 1.7 2 0.6 1.4 0.2 1.3 0.1 1.4 0.3 1.6 0.5 1.3 2.2 3.5 0.5 1.3 0.1 1.2 0.3 4.7-0.1 0.6-1.1 1.9-0.3 0.4 0.4 1.6-2.2 2.6-0.7 1.4 0 1.7-0.3-0.3-0.8-0.2 0.4 0.9-1.2 0.2-1.2 0.8-1.7 2.1 0.2 0.9 1.1 1.3 2.1 1.8 0 0.4-0.8 2.8-0.5 0.8-0.3 1.1 0.5 1.1 1.4 1.3 2.3 3 0.8 1.9-0.9 0.8 0.5 1.2 1.7 2 0.3 0.7-0.5 0.9-2.4 0.5-0.7 0.7 0.7 2z" id="TUR3040" name="Kars">
 </path>
 <path d="M843.1 299.6l3.1 8.2 1.5 5.7-0.6 4.4-3.9 1.9-5 2.7-2.1 2.4 0.8 2.7 6.1 1.9 3.2 2.8 1.1 4.1-21.8 5.1-14.5 0.7-1.1-0.3-2.3-1-12.5-2.5-9.7 1.5-2.6 1-7 3.9-2.4 0.7-1.2 0-1.1 0.3-1.1 0.4-1.1 0.6-6.9 4.7-2.2-1.2-4.8-8.4 0.6-5.2-0.7-1.4-2.6-2.7-1.7-1.4-1.5-1.6-0.7-7.8 5.1-6.6 2.3-2.1 5.7-4 2.6-1 5.8-4.5 4.2-0.3 2.4-3.3 0.7-1.5 5.7-1.2 18.2 0.4 3.4-1.5 1.3-0.1 1 0.5 3.6 4.7 3.7 7.6 5.6 3.5 8-1.6 5.8-4.3 9.6-6.9z" id="TUR3041" name="Mardin">
 </path>
 <path d="M835.8 266l-2.3 2.7-1.1 3.6-2.6 3-6 1.7-1.7 3 0.4 4.3 5.6 5.2 9.5 3.9 5.5 6.2-9.6 6.9-5.8 4.3-8 1.6-5.6-3.5-3.7-7.6-3.6-4.7-1-0.5-1.3 0.1-1.2-2-0.4-2.5-0.5-1.9 0.5-1.6 2.5-1.8 2.1-2.4 2.4-8 1-1.4 0.8-1.6 0.4-3.7-0.7-7.2 0.6-3.9 1.1-3.6 0.4-2.4 1.2-1.7 2.7-1.3 1.7-0.5 1.7-0.2 2-1.1-0.3-2.3 2.8-0.9 2.9-0.4 4.5 1.7 1.8 9 1.2 3.6 0.2 2.4 0 2.5-0.2 1.5 0.1 1.5z" id="TUR3042" name="Batman">
 </path>
 <path d="M893.7 268.6l4.1-0.2 4.2 0.8 3.6 1.4 0.5 4.7-0.1 2.7 0.3 2.7-0.2 2.8-0.7 2.7-0.2 3.8-0.7 1.6-0.6 1.9 2.1 4.9-0.6 3.7-3.2 3.3-8.8-0.9-11-1.6-10.6-2.7-6.9-0.3-4 4.1-10.4-0.8-7.4-3.6-5.5-6.2-9.5-3.9-5.6-5.2-0.4-4.3 1.7-3 6-1.7 2.6-3 1.1-3.6 2.3-2.7 5.4 2 5.6 0.5 4.5-1.2 4.5-1.7 3.5 1.6 3.1 3.1 3.3 2.6 3.8 1.6 3.6 0.9 2.4 1 3.2 2.4 5.3 3 3.5 2.5 2-0.1 1.6-2.4 0.2-3-0.3-2.1 0-2 0.6-0.9 0.6-0.8 1.5-4.4z" id="TUR3043" name="Siirt">
 </path>
 <path d="M925 298.3l-0.4 6-1.1 3.8 0.9 3.5 1.7 4.4-0.4 5.7-1.3 3.5-0.7 1.3-1.4-1-0.6-0.2-1 0.2-0.4 0.2-0.5 0.5-0.5 0.1-0.8-0.2-6.8-3.7-0.9-0.3-1.6 0.2-2.1 0.5-2 0.9-1.4 1-2.2 0.8-2.1-0.3-4.3-1.5-0.4-0.3-0.3-1.1-0.4-0.4-1.1 0-2.6 1-0.3 0.3-0.3 0.5-0.2 0.9-0.2 0.5-6.6 9.6-0.8 2.2-0.8 0.3-4.5 0.8-3 1-2.3 0.3 0-1.9-0.2-0.9-0.4-0.4-0.6-0.9 1-3.6-0.4-0.9-0.3-0.1-1.8-1.5-0.7-1.3-0.3-0.1-1 0.8-1.6-0.8-0.7-0.1 0-1.7-0.6-0.7-1 0.7-0.7 0.5-2.6 3.5-4 3.7-2.3 1.4-5.8 1.4-1.1-4.1-3.2-2.8-6.1-1.9-0.8-2.7 2.1-2.4 5-2.7 3.9-1.9 0.6-4.4-1.5-5.7-3.1-8.2 7.4 3.6 10.4 0.8 4-4.1 6.9 0.3 10.6 2.7 11 1.6 8.8 0.9 3.2-3.3 0.6-3.7 4.2-2.3 4.4 0.6 4 1.7 1.3 0.3 2.5-0.1 2.6-0.3z" id="TUR3044" name="Sirnak">
 </path>
 <path d="M777.3 176.9l-2 2.5-2.6 1.2-1.4-0.1-2.4-0.4-0.9 0.7-1.4 3-2.5 1.8-2.5-0.1-2.4 1-0.4 1.3-0.5 1.1-0.7 0.3-3.7-0.2-2.6 0.8-0.7 1.4-0.3 3.3-0.6 1.7-0.3 1.8 1.1 5.1-0.4 2.2-0.9 2.1-2.8 0.2-2.6 0.6-1 0.7-0.7 1.1 0.6 2.6 0.2 2.3-0.7 3.2-1.4 2.8-3.2 3.6-4.9 1.9-5 0.3-1.9-0.1-1.8 0.4-1.3 1.7-1.6 1.1-1.3-0.4-1.3-0.6-1.3 0.3-1.2-1.5-1-0.7-2.3-0.7-2.3-1.6-2.4-1.1-2.1-0.2-2.1-0.7-1.7-0.1-1.6-1-0.5 0-1.6 0.3-2.2-1-4.1 0.3-4.1 1.1-1.5 0-2.2-2.2 0-1.9 0.8-1.7-0.1-2-2-3-0.4-4.2-0.9-0.7-0.2-1.6 0.2-1.6 1.8-1 0.8-3.8 1.2-0.7 1.4-0.3 1.4-0.9-0.7-1.3-0.7-2 0.9-2.2 3.1-1.1 0.6-0.3 0.6-1.2 0.7-1.1 1.5 0.1 1.3-0.7 1-1.8 1.4-1.1 5.2-2 2.7-0.5 2.7 0.5 2.2-0.6 2.1-1.1 4 0.3 4 0.9 4.1 0 8-1.2 3.6-1.2 2.4-3 1.9-0.6 2.8 1.6 4.1 1 4.8-1.6 1.1-0.2 2-0.9 1.7-0.6 0.1-0.2 0.6 0.1 2 0.7 1 0.6 7.7 0.2 4.3 0.7 4.2 0.1z" id="TUR3045" name="Tunceli">
 </path>
 <path d="M967.6 287l-0.1 0.5 0.9 1.4 1.8 0.3 3.4-0.4 0.6 0.2 1.9 0.9 0.5 0.4 0.3 0.6 0.5 1.6 0.6 0.7 0.4 0.2 0.7-0.2 0.4 0.3 0 0.3-0.2 1.5 0.4 0.7 0.7 0.1 0.9-0.3 0.6-0.4 1.4-0.2 1.5 0.7 1.3 1.1 1.9 2.4 0.1 0.6-0.5 0.9-1.8 1.4-0.4 0.6-0.3 2 1.1 1.2 1.1 0.9 0.3 1.1-0.5 1.3-0.4 1.7-0.1 1.6 0.5 2.5-0.7 1.9 0.4 1.1 0.7 0.4 1.9 0.2 0.8 0.6 0.7 1.9 0.5 0.5 1.9-0.3 0.5 0.6 0.3 1 0.4 0.9 3 1.9 1.2 1.4-0.1 2.1-0.7 0.8-0.7 0.4-0.6 0.6-0.4 1.2 0.2 1.3 0.5 1.1 0.3 1.1-0.3 1.3-0.7-1.2-1-0.5-5.5-0.8-1 0.1-1.6 0.8-2.1 1.4-1.8 1.8-1.3 1.6-1.3 1.1-1.4 0.7-4.4 1.5-0.4 0.7-0.2 1-0.8 1.4-0.5 1.1-0.5 0.5-0.6 0.1-2.2-0.6-0.5-0.4-0.3-0.7-2.1-4.7-0.4-1.4 0-1.4 0.5-1.3 0.9-1.1 0.6-0.4 1.1-0.4 0.5-0.8 0-1.4-0.3-1.5-0.4-1.5-0.6-1.1-0.9-0.9-1.2-0.7-5-2.1-2.7-0.5-2.4 0.4-1.9 1.6-1.5 2.3-1.6 1.8-2.8 0.5-0.9 1-0.7 0.2-0.4-0.3-1.1-1.1-0.5-0.3-1.3-0.4-1.3-0.1-5.4 0.4-1.2-0.2-1.3-0.5-1.4-1-0.7-0.1-0.6 0.1-1.3 0.5-0.7 0.1-0.9-0.3-2.4-2-2.1-1.1-0.7-0.6 0.7-1.3 1.3-3.5 0.4-5.7-1.7-4.4-0.9-3.5 1.1-3.8 0.4-6 7-0.1 6.9-1.1 1.5-0.8 1.5-0.6 2.2 0.3 2.1 0.9 3.4 0 3.3-0.7 2.9-1.7 1.3-3.6 2.1-3.7 3.8-0.8 4.6 0.6z" id="TUR3047" name="Hakkari">
 </path>
 <path d="M959.4 191.2l0.2 0.7 0.3 1.4 0.6 1.3-0.1 1 0 0.6 0.2 0.6 0.6 1.3 0.1 0.6-0.4 1.2 0.1 0.6 1.3 1 2.3 1.3 2.1 1.4 0.4 1.6-1 2.1-0.3 1 0.5 2.7-0.5 0.8-0.9 0.7-0.7 1.3 0.4 0.9 0.3 1 0.3 0.5 0.8 0.8 0 1.2 0.9 2.5 0.8 1 0.8 0.8 2.8 1.3 0.2 2-1.4 4.9-0.2 1.3 0.1 0.8 0.2 0.8 0.3 1.2-0.2 0.5-0.5 0.5-0.1 0.4 0.6 0.3 1 0.3 0.7 0.7 0.4 1.1 0 1.4-0.2 2.7 0.4 3.4 0 1.1-0.7 2.7 0 0.8 0.2 1.7-0.2 1.7 0.1 0.6 1.3 0.7 2.6 0.4 1.7-1 0.7-0.1 0.8 0.3 0.7 0.6 0.6 0.9 0.4 1.1 0.1 1-1.2 1.7-1.9 1.5-1.5 1.7 0.3 3.2-0.2 1.3-0.3 1.3-0.4 0.9-0.4 0.6-0.9 0.4-0.4 0.3-0.1 0.6 0.4 1.3-0.3 0.4-1 0.5-0.6 0.5-0.5 0.9-0.5 1.3-0.4 1.1-1.3 1.4-0.9 1.8-0.3 0.8-0.1 0.9 0.2 0.9 0.1 0.8-1 1.4-0.1 0.3-4.6-0.6-3.8 0.8-2.1 3.7-1.3 3.6-2.9 1.7-3.3 0.7-3.4 0-2.1-0.9-2.2-0.3-1.5 0.6-1.5 0.8-6.9 1.1-7 0.1-2.6 0.3-2.5 0.1-1.3-0.3-4-1.7-4.4-0.6-4.2 2.3-2.1-4.9 0.6-1.9 0.7-1.6 0.2-3.8 0.7-2.7 0.2-2.8-0.3-2.7 0.1-2.7-0.5-4.7-3.6-1.4-4.2-0.8-4.1 0.2-2.8-0.9-0.9-3.4 0.5-2.3-0.1-1.7-0.2-0.9-1.9-4.2-0.3-1.4 0.5-2.9 0.9-0.9 5.6-3.2 3.3-2.3 1.1-1.9 0.9-2 4.8-7.2 2.8-3 3.8-3 1.5-4.9-2.1-3.3-6.1-3.7-1.6-3.4-0.1-5.2 6.1-2.4 1.3-1.4 0.1-2.4 0.3-2.3-0.3-2.1-2.1-0.8-1.9-1.2 0.4-2 1.2-0.5 3.1-0.6 1.8-0.6 1.9-2.5 2.3-1.8 4 0.3 3.6 1.6 3 3.2 2.4 1.5 4.5 0.8 1.8 0.1 1.3-1.4 1.5-1.1 2-0.3 2 0.3 2.5 0.9 3.1 0.3 0.9 0.3 1.9 0.4 7.4-2z" id="TUR3048" name="Van">
 </path>
 <path d="M927.8 70.3l-3.4 1.1-5.3 3-17 7.3-6.2 3.3-1.2 5.3-0.8 8.2-1 5-6.2 0.6-6 1.2-1.6-2.8-2.1-2.1-1.5-2.3-1.1-2.7-1.5-1.9-1.9-1.3-2.7-4.1-1.1-5.3 3.3-6.5 4.5-5 4.4-2.2 1.4-4.7-1.5-4.8-1-2.5-0.4-0.7-0.6-1.7-0.4-3-0.7-4 0.6 0 1.1-0.7 1.6-2.4 1.1-1.2 0.5-1.1 0.5-2.9 0.5-1.2 1.1-0.8 1.3-0.4 2.6-0.2 7.3 0.6 1 0.5-0.4 0.6-0.3 1.4-0.2 0.7-0.4 0.5-1 0.8-0.5 0.7 1.4 0.8 1 1.1 0.9 0.3 1.3-1.4 0.7-0.5 0.4 0.5 0.3 0.8 0.4 0.8 0.4 0.3 1.5 0.5 0.8 0.9 0.5 0.2 0.4 0.4 1.6 3 0.7 0.8 3.8 2.6 2.6 2.2 1.6 0.8 1.5 0.2 0.1 0.4-0.7 1-0.8 0.7-2.8 1.4 1.4 0.5 1.1-0.2 1.1 0.2 1 1.2 1.3 3 0.7 0.6 4.8-1.4 1.5-0.1 1.7 0.5 1.4 0.8 1.4 1.3 0.8 1.7-0.6 1.8z" id="TUR4839" name="Ardahan">
 </path>
 <path d="M980.8 170.6l-0.8-0.7-2.1-0.5-9.3 2.2-4-0.5-3.9-1.2-5.2 0.6-4.8-0.7-0.3-1.1-0.3-0.9-3.3-0.8-4.7-2.2-1.6-2.1-1.1-2.5-1.7-1.2-1.1 0-1.7-0.8-0.7-0.6-1.7-0.3-3.5 1.4-3.3 2.4-1.8-0.7-0.9-0.8-0.7-2.5 0-1.6 0.3-3.3-1.2-3.8 2-2.3 0-2.6 2.7-1.3 6.5-1 6.9-2.4 2.4 1.3 4.7 1.4 5.7 3.1 6.3 1.1 0.9-0.3 1.8-1.3 1.1-0.3 0.5 0.2 0.7 0.6 0.4 0.2 0.5-0.1 1.1-0.3 1.5-0.2 3.1-0.9 1.8 0 1.9 0.6 7.2 4.3 3.1 2.6 1.3 1.5 0.6 1 0.4 1.6 0.5 0.5 0.7 0.6 0.2 0.6 0 0.8 0.2 0.4 0.7-0.4 1.9 2.2 1 0.5 0.8 0 0.5 0.3 0.3 0.5 3.2 4.2 1.3 2.3 0.6 2.5 0.6 0.9-4.2-3.1-1-0.9-3.2-1.4-0.7-0.9-1.4-2.1-0.8-0.6-1.3 0.4-5.5 4.6-0.2 0.8 0.2 2.2-0.1 0.8z" id="TUR4840" name="Iğdir">
 </path>
 <path d="M619.2 367.7l-3.9 2.6-2.2 0-8.5-1.6-1.1 0.1-3.4 0.9-0.9-0.2-0.9-0.2-0.8-0.1-1 0.4-0.8 0.9-0.4 0.6-0.5 0.1-1.1-0.5-0.9-0.9-0.2-0.8 0.4-2.1 0-1.3-0.4-0.9-2.4-2.2-1-0.6-1.1-0.4-1-0.2-3.2-0.2-9.6-3.4 2.8-2.7 4.3-2 3.5-2.4 0.6-4.4 1.6-1.3 1.9 1 1.6 3.7 3.5 0.7 4 2.7 4.3 4.4 2.2 2.7 1.6-1.1 3.8 2.1 4.8 2.7 4.4 3.9z" id="TUR4841" name="Kilis">
 </path>
 <path d="M554.5 302.5l-0.1 5.2-1.1 1.9-1.5 1.6-0.4 2 0.6 1.9 0.7 0.7 0.6 0.8 0.2 4.4 2.2 2.6 0.5-0.1 0.3-0.6 0.5-0.3 1.3-0.5 0.9 1 1.7-0.3 2-0.8 5.7-1.1 2 0.5 1.8 1.3 2.8 2.6 2.3 3.4-2.4 2.7-2 3.1-2.8 5.6-3.7 4.7-1.9 1.8-1.3 2.4-2.6 0.3-2.6 0-2-1.3-1.7-1.8-2.4-0.8-2.4 0.7-2.2-0.1-2.1-0.6-2.3 0.4 1.4-4 0.8-3.3-0.6-3.7-0.4-0.9-1.5-1.2-3.4-0.7-1.1 0.1-1.6-4.8 0-5.1 3.5-8.5 3-6.8 2.4-4.1 4.9-0.3 4 0z" id="TUR4842" name="Osmaniye">
 </path>
 <path d="M197.3 99l0 6.1-0.4 2.7-3.3-0.7-3.3 3.5-3.3 0.7-8-3.5-1.6 0.2-3.6-0.9 0.1 7.4-0.5 0.2-2.8-0.6-4.6-2.9-2.8-0.7 0.9-2.1 1.8-1.2 3.7-1.4 1.6-1 2.2-2.3 0.8-0.4 15.4-1.4 2.2-0.8 2.1-1.2 1.1-0.8 0.4-0.1 0.4 0.4 0.4 0.6 0.5 0.5 0.6-0.3z" id="TUR5518" name="Yalova">
 </path>
 <path d="M320.9 74.8l-0.9 6-2.6 3-4.8 1.1-6.7 1.2-2.6 1.9-0.2 3.6-1.9 5.1-4 3-5 0.6-5.9-2.5-8.5 0.2-4.3-1.5 1.2-2.1-1.1-1.6-0.5-1.8 0.7-2-0.1-2.1-0.9-1.8-0.4-2.1 1.8-4.1 3-2.8-0.1-1.5-0.3-2 0.1-0.7 7-0.1 1.3-0.8 0.5-0.1 0.7 0 1.1 0.3 0.5 0.1 2.2-0.4 1.1 0.4 0.4-0.1 0.2-0.6 0.3-0.3 2.1-0.8 1.8-1.1 1.2-1.2 2 1.9 8.9 4.4 12.7 1.3z" id="TUR5519" name="Düzce">
 </path>
 <path d="M387.1 71.2l-2.2 5.6-5.1 2.8-5.1-0.5-1.8 1.1-2.5 4.5-6.2 5-5.4 2.5 0.2-1.8-2-3.6-6-3-2.4-1.5-1.5-0.3-1.2-0.8 0-1.9 0.2-1.9-4.4-1-2.6-0.1 0-6.2 1.7-5.6 0.9-3.6 1.9-2.3 2.7-3.9 5.7 0.3 5.5-1.4 6.3-5.4 2.3-5 3-0.9 4.9-4.7 1.8 2 3.1-0.5 3.9-1.3 3.7 2.8 1.5 6.2 1.5 3.4-5.1 1.1-2.8 2.7-2.3 3.2-0.5 2.4 1 7.4 2.9 0.5 2.8 1.2 1.1 1.6 0.5 0.9z" id="TUR5520" name="Karabük">
 </path>
 <path d="M374 37.6l-4.9 4.7-3 0.9-2.3 5-6.3 5.4-5.5 1.4-5.7-0.3 1.1-5.9-1.9-4.8-1.1-3.6-3.1-1.4-3-3 1.5-0.9 0.8-1.7 3.4-3.9 0.3-0.4 0.8-1.5 1.7-0.5 2.9-0.2 0.1-0.4 1-0.5 0.2-0.8 0.5 0 0.7 0.8 0.9-0.5 1.2-1.3 0.7-0.6 3.6-1.9 0.6-0.5 0.7-0.3 0.8-0.1 0.8 0.4 0.6-1.1 1.2-0.9 1.4-0.3 1.2 0.6 0.9-0.1 3.1-1.2 0.8-0.4 0.8 0.1 1.5-0.1 0.5 4.2 1.5 3.1 1.9 5.1-3.4 2.4 0.5 5z" id="TUR5521" name="Bartın">
 </path>
 <circle cx="401.7" cy="111.5" id="0">
 </circle>
 <circle cx="403.7" cy="112.1" id="1">
 </circle>
 <circle cx="280.5" cy="129.9" id="2">
 </circle>
</svg>